<?xml version="1.0" encoding="UTF-8"?>
<svg id="Layer_2" data-name="Layer 2" xmlns="http://www.w3.org/2000/svg" viewBox="0 0 832.79 526.32">
  <defs>
    <style>
      .cls-1 {
        fill: #000;
        stroke-width: 0px;
      }
    </style>
  </defs>
  <g id="_109" data-name="109">
    <g>
      <path class="cls-1" d="M170.22,89.52c-5.76,2.16-13.08,2.16-20.52,4.8-5.4,1.92-6.48,3.96-6.48,6.36,0,3.36,2.28,6,6.36,6,4.92,0,10.2-4.56,16.32-10.2,5.64-5.16,8.88-6.48,11.28-6.48,2.16,0,3.84.72,5.4,3.36,2.52,4.32,5.16,10.44,5.16,15.84,0,5.88-4.92,9-13.56,9-26.64,0-41.16-10.92-41.16-30,0-8.28,4.56-15.6,12-19.08,5.88-2.76,13.2-2.76,18.12-4.2,2.4-.72,2.52-2.28,2.88-3.84l.48-2.4c.24-1.08.72-1.32,2.4-1.32s2.04.12,2.76,1.44c3.48,6.48,6.36,13.44,6.36,18.96,0,6.96-3.24,10.08-7.8,11.76ZM182.1,40.44c0,8.52-6.84,15-15.72,15s-15.72-6.48-15.72-15,6.84-15,15.72-15,15.72,6.48,15.72,15Z"/>
      <path class="cls-1" d="M253.85,4.56c9.12,0,17.16.48,24.96,1.8,2.4.36,2.64.72,3,3.12,1.08,7.2,1.92,16.08,1.92,23.52,0,.96-.48,1.2-3.24,1.2s-3.12-.24-3.48-1.2c-2.4-5.88-6-12.36-11.04-17.4-4.08-4.08-8.28-5.76-15.48-5.76-12.12,0-22.08,8.04-22.08,27s6.48,39.48,15,48c3.12,3.12,6.24,4.56,10.32,4.56,4.32,0,8.4-1.8,12.72-6.12,5.04-5.04,9.6-14.28,12.12-21.48.36-.96.72-1.2,3.48-1.2s3.24.24,3.24,1.2c0,3.72-1.8,17.4-3.36,27.6-.36,2.4-.72,2.76-3.12,3.12-8.4,1.32-18,1.8-29.04,1.8-32.52,0-54.84-16.68-54.84-44.28,0-29.16,28.08-45.48,58.92-45.48Z"/>
      <path class="cls-1" d="M372.41,85.44c0,2.04-.24,2.28-.96,2.4-7.2,1.44-16.8,3.72-25.8,6.36-.96.24-3.84-.48-4.2-1.68-1.08-3.96-2.16-9.6-2.4-12.96-3.12,7.2-10.8,14.76-21.48,14.76-12.6,0-20.4-8.04-20.4-21v-33.72c0-1.2-.24-1.44-1.44-1.68l-4.08-.96c-.72-.12-.96-.48-.96-2.52s.36-2.76,1.08-2.76c10.56-.24,31.44-.48,32.28-.48s1.8.96,1.8,1.8c0,2.04-.96,8.88-.96,23.64v6.24c0,11.16,2.64,15.12,10.68,15.12.84,0,2.04-.12,2.64-.36v-38.04c0-1.2-.24-1.44-1.44-1.68l-4.08-.96c-.72-.12-.96-.48-.96-2.52s.36-2.76,1.08-2.76c10.56-.24,31.44-.48,32.28-.48s1.8.96,1.8,1.8c0,2.04-.96,8.88-.96,23.64v23.64c0,1.2.24,1.44,1.44,1.68l4.08.96c.72.12.96.48.96,2.52Z"/>
      <path class="cls-1" d="M410.57,79.08c-3.84,9.6-11.16,15.24-19.92,15.24-9.24,0-15.6-7.44-15.6-16.8,0-7.32,2.28-11.52,8.52-14.88,5.64-3,14.64-5.64,26.04-8.16v-3.84c0-8.64-2.64-13.92-7.2-13.92-1.2,0-1.68.36-1.92,1.92l-.84,5.76c-1.2,8.64-6.24,12.72-12.96,12.72-3.72,0-7.08-2.28-7.08-6.72,0-7.68,14.88-19.44,33.24-19.44,16.32,0,24,6.48,24,18.12v22.08c0,9.6,1.92,9.84,5.16,7.68.36-.24.48-.36.72-.36,1.08,0,2.88,2.64,2.88,3.36,0,.6-.48,1.08-1.2,1.8l-.48.48c-7.2,7.2-12.36,10.2-18.24,10.2-7.08,0-12.12-4.8-15.12-15.24ZM409.61,77.28v-8.52c0-2.64-1.08-4.56-2.52-6-1.56-1.56-3.48-2.28-4.68-2.28-2.4,0-3.48,1.44-3.48,5.04,0,6.72,4.56,12.6,8.52,12.6,1.2,0,1.8-.48,2.16-.84ZM427.01,10.8c0,2.16-1.2,4.2-4.8,6.36l-14.28,8.64c-1.08.6-1.8,1.08-2.4,1.08-1.56,0-3.6-2.04-3.24-3.36l4.44-17.52c1.2-4.8,3.12-6,6.72-6,5.76,0,13.56,5.88,13.56,10.8Z"/>
      <path class="cls-1" d="M527.81,90.72c0,2.16-.24,2.52-.96,2.52-2.76,0-10.56-.84-19.32-.84s-15.84.84-18.6.84c-.72,0-.96-.36-.96-2.52s.24-2.4.96-2.64l3.24-.84c1.2-.36,1.44-.48,1.44-1.68v-23.64c0-11.16-2.64-15.12-10.68-15.12-.84,0-2.04.12-2.64.36v38.4c0,1.2.24,1.32,1.44,1.68l3.24.84c.72.24.96.48.96,2.64s-.24,2.52-.96,2.52c-2.76,0-9.72-.84-18.48-.84s-16.68.84-19.44.84c-.72,0-.96-.36-.96-2.52s.24-2.52.96-2.64l4.08-.84c1.2-.24,1.44-.48,1.44-1.68v-31.56c0-1.2-.24-1.32-1.44-1.56l-4.08-.72c-.72-.12-.96-.36-.96-2.28,0-1.8.24-2.04.96-2.28,9.84-3.84,19.2-9.72,28.8-16.56.36-.24.6-.36.96-.36.84,0,3.12.96,3.12,1.8,0,1.92-.48,5.88-.48,13.08,3.24-7.08,10.92-14.16,21.48-14.16,12.6,0,20.4,7.56,20.4,20.52v34.08c0,1.2.24,1.44,1.44,1.68l4.08.84c.72.12.96.48.96,2.64Z"/>
      <path class="cls-1" d="M562.49,39.12v23.76c0,11.16,3,13.92,8.16,13.92,1.56,0,2.4-.72,3-.72,1.32,0,3.36,1.92,2.88,3.12-3,7.56-11.4,15.12-22.56,15.12-12.6,0-19.2-8.04-19.2-21v-32.88c0-1.2-.12-1.32-1.44-1.56l-4.32-.6c-.84-.12-.96-.36-.96-2.4s.24-2.52.96-2.64c12.6-3,19.44-7.2,27.24-15.36.72-.72.84-.96,2.76-.96s2.28.12,2.4.96c.48,3.48.84,8.76.96,14.04l13.56-.12c1.2,0,1.68.6,1.68,3.84s-.48,3.6-1.68,3.6c-4.2,0-9.36,0-13.44-.12Z"/>
      <path class="cls-1" d="M613.61,79.08c-3.84,9.6-11.16,15.24-19.92,15.24-9.24,0-15.6-7.44-15.6-16.8,0-7.32,2.28-11.52,8.52-14.88,5.64-3,14.64-5.64,26.04-8.16v-3.84c0-8.64-2.64-13.92-7.2-13.92-1.2,0-1.68.36-1.92,1.92l-.84,5.76c-1.2,8.64-6.24,12.72-12.96,12.72-3.72,0-7.08-2.28-7.08-6.72,0-7.68,14.88-19.44,33.24-19.44,16.32,0,24,6.48,24,18.12v22.08c0,9.6,1.92,9.84,5.16,7.68.36-.24.48-.36.72-.36,1.08,0,2.88,2.64,2.88,3.36,0,.6-.48,1.08-1.2,1.8l-.48.48c-7.2,7.2-12.36,10.2-18.24,10.2-7.08,0-12.12-4.8-15.12-15.24ZM612.65,77.28v-8.52c0-2.64-1.08-4.56-2.52-6-1.56-1.56-3.48-2.28-4.68-2.28-2.4,0-3.48,1.44-3.48,5.04,0,6.72,4.56,12.6,8.52,12.6,1.2,0,1.8-.48,2.16-.84Z"/>
      <path class="cls-1" d="M653.69,70.2c2.28,0,2.64.24,3,1.2,2.4,6,4.32,10.56,6.36,14.04,2.04,3.48,4.68,4.56,8.28,4.56,5.28,0,8.4-2.64,8.4-7.08s-2.28-7.2-10.8-9.72c-14.64-4.32-18.24-11.04-18.24-21.36,0-11.88,10.68-21.48,30.24-21.48,4.32,0,8.76.48,13.32,1.08,2.4.36,2.64.6,2.64,3v14.28c0,.96-.24,1.2-2.52,1.2s-2.64-.24-3-1.2l-3.72-9.48c-1.2-2.88-3.24-4.56-7.2-4.56s-7.2,1.68-7.2,6.12c0,3.96,1.92,6,9.96,8.88,13.56,4.8,17.88,11.88,17.88,21,0,14.04-11.04,23.64-30.24,23.64-7.08,0-12.12-.84-18.36-2.76-2.4-.72-2.64-.96-2.64-3.36,0-4.44.6-11.28,1.2-16.8.12-.96.48-1.2,2.64-1.2Z"/>
      <path class="cls-1" d="M146.03,234.72c0,2.16-.24,2.52-.96,2.52-2.76,0-10.56-.84-19.32-.84s-15.84.84-18.6.84c-.72,0-.96-.36-.96-2.52s.24-2.4.96-2.64l3.24-.84c1.2-.36,1.44-.48,1.44-1.68v-23.64c0-11.16-2.64-15.12-10.68-15.12-.84,0-2.28.12-3,.36.24,1.32.36,2.76.36,4.32v34.08c0,1.2.24,1.32,1.44,1.68l3.24.84c.72.24.96.48.96,2.64s-.24,2.52-.96,2.52c-2.76,0-9.72-.84-18.48-.84s-15.84.84-18.6.84c-.72,0-.96-.36-.96-2.52s.24-2.4.96-2.64l3.24-.84c1.2-.36,1.44-.48,1.44-1.68v-23.64c0-11.16-2.64-15.12-10.68-15.12-.84,0-2.04.12-2.64.36v38.4c0,1.2.24,1.32,1.44,1.68l3.24.84c.72.24.96.48.96,2.64s-.24,2.52-.96,2.52c-2.76,0-9.72-.84-18.48-.84s-16.68.84-19.44.84c-.72,0-.96-.36-.96-2.52s.24-2.52.96-2.64l4.08-.84c1.2-.24,1.44-.48,1.44-1.68v-31.56c0-1.2-.24-1.32-1.44-1.56l-4.08-.72c-.72-.12-.96-.36-.96-2.28,0-1.8.24-2.04.96-2.28,9.84-3.84,19.2-9.72,28.8-16.56.36-.24.6-.36.96-.36.84,0,3.12.96,3.12,1.8,0,1.92-.48,5.88-.48,13.08,3.24-7.08,10.92-14.16,21.48-14.16s17.16,4.92,19.56,13.56c3.36-6.96,11.28-13.56,21.48-13.56,12.6,0,20.4,7.56,20.4,20.52v34.08c0,1.2.24,1.44,1.44,1.68l4.08.84c.72.12.96.48.96,2.64Z"/>
      <path class="cls-1" d="M229.56,229.44c0,2.04-.24,2.28-.96,2.4-7.2,1.44-16.8,3.72-25.8,6.36-.96.24-3.84-.48-4.2-1.68-1.08-3.96-2.16-9.6-2.4-12.96-3.12,7.2-10.8,14.76-21.48,14.76-12.6,0-20.4-8.04-20.4-21v-33.72c0-1.2-.24-1.44-1.44-1.68l-4.08-.96c-.72-.12-.96-.48-.96-2.52s.36-2.76,1.08-2.76c10.56-.24,31.44-.48,32.28-.48s1.8.96,1.8,1.8c0,2.04-.96,8.88-.96,23.64v6.24c0,11.16,2.64,15.12,10.68,15.12.84,0,2.04-.12,2.64-.36v-38.04c0-1.2-.24-1.44-1.44-1.68l-4.08-.96c-.72-.12-.96-.48-.96-2.52s.36-2.76,1.08-2.76c10.56-.24,31.44-.48,32.28-.48s1.8.96,1.8,1.8c0,2.04-.96,8.88-.96,23.64v23.64c0,1.2.24,1.44,1.44,1.68l4.08.96c.72.12.96.48.96,2.52Z"/>
      <path class="cls-1" d="M231.24,260.4c0-.48,0-.72.48-1.2,5.52-6.12,7.2-10.32,7.2-24.96v-36.24c0-1.2-.24-1.32-1.44-1.56l-4.08-.72c-.72-.12-.96-.36-.96-2.28,0-1.8.24-2.04.96-2.28,9.84-3.84,20.52-10.2,30.12-16.56.36-.24.6-.36.96-.36.84,0,3.12.96,3.12,1.8,0,2.04-.96,10.2-.96,24.96v5.88c0,8.64.72,18.12.72,25.68,0,17.64-13.8,31.08-33.72,31.08-.72,0-2.4-2.4-2.4-3.24ZM240.6,155.04c0-7.8,5.76-13.8,13.8-13.8s13.8,6,13.8,13.8-5.76,13.8-13.8,13.8-13.8-6-13.8-13.8Z"/>
      <path class="cls-1" d="M305.4,199.44c1.8,6,5.04,11.76,8.4,15.12,4.56,4.56,7.8,5.76,12.12,5.76,4.92,0,8.4-2.04,11.64-4.92,1.08-.96,4.08,1.32,3.6,2.52-4.92,12.24-18.48,20.4-31.44,20.4-17.88,0-31.68-12.24-31.68-31.2s14.52-32.16,35.88-32.16c17.88,0,27.6,8.64,27.6,20.16,0,1.08,0,2.28-.24,3.12-.12.48-.6.84-1.32.84-9.48.48-23.16.72-34.56.36ZM316.56,185.64c0-4.56-1.92-6.96-5.28-6.96-3.72,0-7.44,3.36-7.44,10.56,0,2.4.36,5.04.84,7.56l3.84-.48c5.52-.6,8.04-4.56,8.04-10.68Z"/>
      <path class="cls-1" d="M407.51,186.96c0,11.4-6.6,17.04-12.24,17.04-2.16,0-3.96-.72-6.6-2.52-2.88-2.04-5.28-3.12-6.84-3.12-.6,0-1.32.12-1.56.36v30.96c0,1.2.24,1.44,1.44,1.56l7.68.84c.72.12.96.48.96,2.64s-.24,2.52-.96,2.52c-2.76,0-10.56-.84-22.92-.84-8.76,0-16.68.84-19.44.84-.72,0-.96-.24-.96-2.52s.24-2.52.96-2.64l4.08-.84c1.2-.24,1.44-.36,1.44-1.56v-31.68c0-1.2-.24-1.32-1.44-1.56l-4.08-.72c-.72-.12-.96-.36-.96-2.28,0-1.8.24-2.04.96-2.28,9.84-3.84,19.2-9.72,28.8-16.56.36-.24.6-.36.96-.36.84,0,3.12.96,3.12,1.8,0,1.92-.48,11.64-.48,19.44,3.6-11.64,10.32-20.52,17.64-20.52s10.44,5.4,10.44,12Z"/>
      <path class="cls-1" d="M437.39,199.44c1.8,6,5.04,11.76,8.4,15.12,4.56,4.56,7.8,5.76,12.12,5.76,4.92,0,8.4-2.04,11.64-4.92,1.08-.96,4.08,1.32,3.6,2.52-4.92,12.24-18.48,20.4-31.44,20.4-17.88,0-31.68-12.24-31.68-31.2s14.52-32.16,35.88-32.16c17.88,0,27.6,8.64,27.6,20.16,0,1.08,0,2.28-.24,3.12-.12.48-.6.84-1.32.84-9.48.48-23.16.72-34.56.36ZM448.55,185.64c0-4.56-1.92-6.96-5.28-6.96-3.72,0-7.44,3.36-7.44,10.56,0,2.4.36,5.04.84,7.56l3.84-.48c5.52-.6,8.04-4.56,8.04-10.68Z"/>
      <path class="cls-1" d="M482.63,214.2c2.28,0,2.64.24,3,1.2,2.4,6,4.32,10.56,6.36,14.04,2.04,3.48,4.68,4.56,8.28,4.56,5.28,0,8.4-2.64,8.4-7.08s-2.28-7.2-10.8-9.72c-14.64-4.32-18.24-11.04-18.24-21.36,0-11.88,10.68-21.48,30.24-21.48,4.32,0,8.76.48,13.32,1.08,2.4.36,2.64.6,2.64,3v14.28c0,.96-.24,1.2-2.52,1.2s-2.64-.24-3-1.2l-3.72-9.48c-1.2-2.88-3.24-4.56-7.2-4.56s-7.2,1.68-7.2,6.12c0,3.96,1.92,6,9.96,8.88,13.56,4.8,17.88,11.88,17.88,21,0,14.04-11.04,23.64-30.24,23.64-7.08,0-12.12-.84-18.36-2.76-2.4-.72-2.64-.96-2.64-3.36,0-4.44.6-11.28,1.2-16.8.12-.96.48-1.2,2.64-1.2Z"/>
      <path class="cls-1" d="M684.58,234.72c0,2.16-.24,2.52-.96,2.52-2.76,0-10.56-.84-19.32-.84s-15.84.84-18.6.84c-.72,0-.96-.36-.96-2.52s.24-2.4.96-2.64l3.24-.84c1.2-.36,1.44-.48,1.44-1.68v-23.64c0-11.16-2.64-15.12-10.68-15.12-.84,0-2.28.12-3,.36.24,1.32.36,2.76.36,4.32v34.08c0,1.2.24,1.32,1.44,1.68l3.24.84c.72.24.96.48.96,2.64s-.24,2.52-.96,2.52c-2.76,0-9.72-.84-18.48-.84s-15.84.84-18.6.84c-.72,0-.96-.36-.96-2.52s.24-2.4.96-2.64l3.24-.84c1.2-.36,1.44-.48,1.44-1.68v-23.64c0-11.16-2.64-15.12-10.68-15.12-.84,0-2.04.12-2.64.36v38.4c0,1.2.24,1.32,1.44,1.68l3.24.84c.72.24.96.48.96,2.64s-.24,2.52-.96,2.52c-2.76,0-9.72-.84-18.48-.84s-16.68.84-19.44.84c-.72,0-.96-.36-.96-2.52s.24-2.52.96-2.64l4.08-.84c1.2-.24,1.44-.48,1.44-1.68v-31.56c0-1.2-.24-1.32-1.44-1.56l-4.08-.72c-.72-.12-.96-.36-.96-2.28,0-1.8.24-2.04.96-2.28,9.84-3.84,19.2-9.72,28.8-16.56.36-.24.6-.36.96-.36.84,0,3.12.96,3.12,1.8,0,1.92-.48,5.88-.48,13.08,3.24-7.08,10.92-14.16,21.48-14.16s17.16,4.92,19.56,13.56c3.36-6.96,11.28-13.56,21.48-13.56,12.6,0,20.4,7.56,20.4,20.52v34.08c0,1.2.24,1.44,1.44,1.68l4.08.84c.72.12.96.48.96,2.64Z"/>
      <path class="cls-1" d="M722.03,223.08c-3.84,9.6-11.16,15.24-19.92,15.24-9.24,0-15.6-7.44-15.6-16.8,0-7.32,2.28-11.52,8.52-14.88,5.64-3,14.64-5.64,26.04-8.16v-3.84c0-8.64-2.64-13.92-7.2-13.92-1.2,0-1.68.36-1.92,1.92l-.84,5.76c-1.2,8.64-6.24,12.72-12.96,12.72-3.72,0-7.08-2.28-7.08-6.72,0-7.68,14.88-19.44,33.24-19.44,16.32,0,24,6.48,24,18.12v22.08c0,9.6,1.92,9.84,5.16,7.68.36-.24.48-.36.72-.36,1.08,0,2.88,2.64,2.88,3.36,0,.6-.48,1.08-1.2,1.8l-.48.48c-7.2,7.2-12.36,10.2-18.24,10.2-7.08,0-12.12-4.8-15.12-15.24ZM721.07,221.28v-8.52c0-2.64-1.08-4.56-2.52-6-1.56-1.56-3.48-2.28-4.68-2.28-2.4,0-3.48,1.44-3.48,5.04,0,6.72,4.56,12.6,8.52,12.6,1.2,0,1.8-.48,2.16-.84ZM738.47,154.8c0,2.16-1.2,4.2-4.8,6.36l-14.28,8.64c-1.08.6-1.8,1.08-2.4,1.08-1.56,0-3.6-2.04-3.24-3.36l4.44-17.52c1.2-4.8,3.12-6,6.72-6,5.76,0,13.56,5.88,13.56,10.8Z"/>
      <path class="cls-1" d="M762.11,214.2c2.28,0,2.64.24,3,1.2,2.4,6,4.32,10.56,6.36,14.04,2.04,3.48,4.68,4.56,8.28,4.56,5.28,0,8.4-2.64,8.4-7.08s-2.28-7.2-10.8-9.72c-14.64-4.32-18.24-11.04-18.24-21.36,0-11.88,10.68-21.48,30.24-21.48,4.32,0,8.76.48,13.32,1.08,2.4.36,2.64.6,2.64,3v14.28c0,.96-.24,1.2-2.52,1.2s-2.64-.24-3-1.2l-3.72-9.48c-1.2-2.88-3.24-4.56-7.2-4.56s-7.2,1.68-7.2,6.12c0,3.96,1.92,6,9.96,8.88,13.56,4.8,17.88,11.88,17.88,21,0,14.04-11.04,23.64-30.24,23.64-7.08,0-12.12-.84-18.36-2.76-2.4-.72-2.64-.96-2.64-3.36,0-4.44.6-11.28,1.2-16.8.12-.96.48-1.2,2.64-1.2Z"/>
      <path class="cls-1" d="M81.72,378.72c0,2.16-.24,2.52-.96,2.52-2.76,0-10.56-.84-19.32-.84s-15.84.84-18.6.84c-.72,0-.96-.36-.96-2.52s.24-2.4.96-2.64l3.24-.84c1.2-.36,1.44-.48,1.44-1.68v-23.64c0-11.16-2.64-15.12-10.68-15.12-.84,0-2.04.12-2.64.36v38.4c0,1.2.24,1.32,1.44,1.68l3.24.84c.72.24.96.48.96,2.64s-.24,2.52-.96,2.52c-2.76,0-9.72-.84-18.48-.84s-16.68.84-19.44.84c-.72,0-.96-.36-.96-2.52s.24-2.52.96-2.64l4.08-.84c1.2-.24,1.44-.48,1.44-1.68v-61.8c0-1.2-.24-1.32-1.44-1.56l-4.08-.72c-.72-.12-.96-.36-.96-2.28,0-1.8.24-2.04.96-2.28,9.84-3.84,20.52-9.96,30.12-16.56.36-.24.6-.36.96-.36.84,0,3.12.96,3.12,1.8,0,2.04-.96,10.2-.96,24.96v16.68c3.6-6.48,10.92-12.48,20.64-12.48,12.6,0,20.4,7.56,20.4,20.52v34.08c0,1.2.24,1.44,1.44,1.68l4.08.84c.72.12.96.48.96,2.64Z"/>
      <path class="cls-1" d="M119.16,367.08c-3.84,9.6-11.16,15.24-19.92,15.24-9.24,0-15.6-7.44-15.6-16.8,0-7.32,2.28-11.52,8.52-14.88,5.64-3,14.64-5.64,26.04-8.16v-3.84c0-8.64-2.64-13.92-7.2-13.92-1.2,0-1.68.36-1.92,1.92l-.84,5.76c-1.2,8.64-6.24,12.72-12.96,12.72-3.72,0-7.08-2.28-7.08-6.72,0-7.68,14.88-19.44,33.24-19.44,16.32,0,24,6.48,24,18.12v22.08c0,9.6,1.92,9.84,5.16,7.68.36-.24.48-.36.72-.36,1.08,0,2.88,2.64,2.88,3.36,0,.6-.48,1.08-1.2,1.8l-.48.48c-7.2,7.2-12.36,10.2-18.24,10.2-7.08,0-12.12-4.8-15.12-15.24ZM118.2,365.28v-8.52c0-2.64-1.08-4.56-2.52-6-1.56-1.56-3.48-2.28-4.68-2.28-2.4,0-3.48,1.44-3.48,5.04,0,6.72,4.56,12.6,8.52,12.6,1.2,0,1.8-.48,2.16-.84Z"/>
      <path class="cls-1" d="M159.24,358.2c2.28,0,2.64.24,3,1.2,2.4,6,4.32,10.56,6.36,14.04,2.04,3.48,4.68,4.56,8.28,4.56,5.28,0,8.4-2.64,8.4-7.08s-2.28-7.2-10.8-9.72c-14.64-4.32-18.24-11.04-18.24-21.36,0-11.88,10.68-21.48,30.24-21.48,4.32,0,8.76.48,13.32,1.08,2.4.36,2.64.6,2.64,3v14.28c0,.96-.24,1.2-2.52,1.2s-2.64-.24-3-1.2l-3.72-9.48c-1.2-2.88-3.24-4.56-7.2-4.56s-7.2,1.68-7.2,6.12c0,3.96,1.92,6,9.96,8.88,13.56,4.8,17.88,11.88,17.88,21,0,14.04-11.04,23.64-30.24,23.64-7.08,0-12.12-.84-18.36-2.76-2.4-.72-2.64-.96-2.64-3.36,0-4.44.6-11.28,1.2-16.8.12-.96.48-1.2,2.64-1.2Z"/>
      <path class="cls-1" d="M242.88,327.12v23.76c0,11.16,3,13.92,8.16,13.92,1.56,0,2.4-.72,3-.72,1.32,0,3.36,1.92,2.88,3.12-3,7.56-11.4,15.12-22.56,15.12-12.6,0-19.2-8.04-19.2-21v-32.88c0-1.2-.12-1.32-1.44-1.56l-4.32-.6c-.84-.12-.96-.36-.96-2.4s.24-2.52.96-2.64c12.6-3,19.44-7.2,27.24-15.36.72-.72.84-.96,2.76-.96s2.28.12,2.4.96c.48,3.48.84,8.76.96,14.04l13.56-.12c1.2,0,1.68.6,1.68,3.84s-.48,3.6-1.68,3.6c-4.2,0-9.36,0-13.44-.12Z"/>
      <path class="cls-1" d="M294,367.08c-3.84,9.6-11.16,15.24-19.92,15.24-9.24,0-15.6-7.44-15.6-16.8,0-7.32,2.28-11.52,8.52-14.88,5.64-3,14.64-5.64,26.04-8.16v-3.84c0-8.64-2.64-13.92-7.2-13.92-1.2,0-1.68.36-1.92,1.92l-.84,5.76c-1.2,8.64-6.24,12.72-12.96,12.72-3.72,0-7.08-2.28-7.08-6.72,0-7.68,14.88-19.44,33.24-19.44,16.32,0,24,6.48,24,18.12v22.08c0,9.6,1.92,9.84,5.16,7.68.36-.24.48-.36.72-.36,1.08,0,2.88,2.64,2.88,3.36,0,.6-.48,1.08-1.2,1.8l-.48.48c-7.2,7.2-12.36,10.2-18.24,10.2-7.08,0-12.12-4.8-15.12-15.24ZM293.04,365.28v-8.52c0-2.64-1.08-4.56-2.52-6-1.56-1.56-3.48-2.28-4.68-2.28-2.4,0-3.48,1.44-3.48,5.04,0,6.72,4.56,12.6,8.52,12.6,1.2,0,1.8-.48,2.16-.84Z"/>
      <path class="cls-1" d="M436.19,404.88c0,2.28-.24,2.52-.96,2.52-2.76,0-10.56-.84-19.32-.84s-16.68.84-19.44.84c-.72,0-.96-.36-.96-2.52s.24-2.52.96-2.64l4.08-.84c1.2-.24,1.44-.48,1.44-1.68v-7.32c0-4.44.6-16.44.84-23.52-4.2,9.12-10.92,13.44-19.44,13.44-12.48,0-24.96-12-24.96-31.2,0-20.4,14.28-32.16,34.08-32.16,10.68,0,19.44,2.64,25.68,7.68,3.12-2.88,5.28-5.04,7.92-7.68.24-.24.84-.72,1.32-.72,1.2,0,3.48.96,3.48,1.56,0,1.44-1.2,7.44-1.2,19.2v60.72c0,1.2.24,1.44,1.44,1.68l4.08.84c.72.12.96.36.96,2.64ZM400.79,367.2c.48,0,.96-.12,1.44-.48v-14.28c0-10.68-4.8-23.64-8.76-27.6-1.56-1.56-2.64-2.04-4.32-2.04-2.52,0-4.2,2.28-4.2,6.6,0,10.56,6.48,29.88,12.96,36.36,1.2,1.2,2.04,1.44,2.88,1.44Z"/>
      <path class="cls-1" d="M517.19,373.44c0,2.04-.24,2.28-.96,2.4-7.2,1.44-16.8,3.72-25.8,6.36-.96.24-3.84-.48-4.2-1.68-1.08-3.96-2.16-9.6-2.4-12.96-3.12,7.2-10.8,14.76-21.48,14.76-12.6,0-20.4-8.04-20.4-21v-33.72c0-1.2-.24-1.44-1.44-1.68l-4.08-.96c-.72-.12-.96-.48-.96-2.52s.36-2.76,1.08-2.76c10.56-.24,31.44-.48,32.28-.48s1.8.96,1.8,1.8c0,2.04-.96,8.88-.96,23.64v6.24c0,11.16,2.64,15.12,10.68,15.12.84,0,2.04-.12,2.64-.36v-38.04c0-1.2-.24-1.44-1.44-1.68l-4.08-.96c-.72-.12-.96-.48-.96-2.52s.36-2.76,1.08-2.76c10.56-.24,31.44-.48,32.28-.48s1.8.96,1.8,1.8c0,2.04-.96,8.88-.96,23.64v23.64c0,1.2.24,1.44,1.44,1.68l4.08.96c.72.12.96.48.96,2.52Z"/>
      <path class="cls-1" d="M549.23,343.44c1.8,6,5.04,11.76,8.4,15.12,4.56,4.56,7.8,5.76,12.12,5.76,4.92,0,8.4-2.04,11.64-4.92,1.08-.96,4.08,1.32,3.6,2.52-4.92,12.24-18.48,20.4-31.44,20.4-17.88,0-31.68-12.24-31.68-31.2s14.52-32.16,35.88-32.16c17.88,0,27.6,8.64,27.6,20.16,0,1.08,0,2.28-.24,3.12-.12.48-.6.84-1.32.84-9.48.48-23.16.72-34.56.36ZM560.39,329.64c0-4.56-1.92-6.96-5.28-6.96-3.72,0-7.44,3.36-7.44,10.56,0,2.4.36,5.04.84,7.56l3.84-.48c5.52-.6,8.04-4.56,8.04-10.68Z"/>
      <path class="cls-1" d="M699.23,378.72c0,2.16-.24,2.52-.96,2.52-2.76,0-10.56-.84-19.32-.84s-15.84.84-18.6.84c-.72,0-.96-.36-.96-2.52s.24-2.4.96-2.64l3.24-.84c1.2-.36,1.44-.48,1.44-1.68v-23.64c0-11.16-2.64-15.12-10.68-15.12-.84,0-2.04.12-2.64.36v38.4c0,1.2.24,1.32,1.44,1.68l3.24.84c.72.24.96.48.96,2.64s-.24,2.52-.96,2.52c-2.76,0-9.72-.84-18.48-.84s-16.68.84-19.44.84c-.72,0-.96-.36-.96-2.52s.24-2.52.96-2.64l4.08-.84c1.2-.24,1.44-.48,1.44-1.68v-31.56c0-1.2-.24-1.32-1.44-1.56l-4.08-.72c-.72-.12-.96-.36-.96-2.28,0-1.8.24-2.04.96-2.28,9.84-3.84,19.2-9.72,28.8-16.56.36-.24.6-.36.96-.36.84,0,3.12.96,3.12,1.8,0,1.92-.48,5.88-.48,13.08,3.24-7.08,10.92-14.16,21.48-14.16,12.6,0,20.4,7.56,20.4,20.52v34.08c0,1.2.24,1.44,1.44,1.68l4.08.84c.72.12.96.48.96,2.64Z"/>
      <path class="cls-1" d="M740.87,318.96c20.88,0,35.28,11.76,35.28,31.2,0,20.4-15.48,32.16-37.68,32.16-20.88,0-35.28-11.76-35.28-31.2,0-20.4,15.48-32.16,37.68-32.16ZM741.83,376.08c1.44,1.44,2.52,1.8,3.72,1.8,2.4,0,4.44-1.56,4.44-7.92,0-12.6-7.32-39.6-12.48-44.76-1.44-1.44-2.52-1.8-3.72-1.8-2.4,0-4.44,1.56-4.44,7.92,0,12.6,7.32,39.6,12.48,44.76Z"/>
      <path class="cls-1" d="M785.39,358.2c2.28,0,2.64.24,3,1.2,2.4,6,4.32,10.56,6.36,14.04,2.04,3.48,4.68,4.56,8.28,4.56,5.28,0,8.4-2.64,8.4-7.08s-2.28-7.2-10.8-9.72c-14.64-4.32-18.24-11.04-18.24-21.36,0-11.88,10.68-21.48,30.24-21.48,4.32,0,8.76.48,13.32,1.08,2.4.36,2.64.6,2.64,3v14.28c0,.96-.24,1.2-2.52,1.2s-2.64-.24-3-1.2l-3.72-9.48c-1.2-2.88-3.24-4.56-7.2-4.56s-7.2,1.68-7.2,6.12c0,3.96,1.92,6,9.96,8.88,13.56,4.8,17.88,11.88,17.88,21,0,14.04-11.04,23.64-30.24,23.64-7.08,0-12.12-.84-18.36-2.76-2.4-.72-2.64-.96-2.64-3.36,0-4.44.6-11.28,1.2-16.8.12-.96.48-1.2,2.64-1.2Z"/>
      <path class="cls-1" d="M222.54,466.08c0,2.16-.24,2.28-.96,2.64l-4.92,2.52c-2.28,1.2-3.12,2.52-10.56,14.76l-9.96,16.32c-2.28,3.84-9.72,16.68-12.12,21.72-.72,1.44-1.2,1.8-3.84,1.8s-3.24-.36-3.84-1.8c-2.16-5.04-8.64-17.76-10.8-21.84l-16.56-31.08c-.6-1.2-.6-1.44-1.8-1.68l-3.72-.72c-.72-.12-.96-.48-.96-2.64s.24-2.52.96-2.52c2.76,0,10.56.84,19.32.84,6.36,0,21.12-.84,23.88-.84.72,0,.96.36.96,2.52s-.24,2.52-.96,2.64l-7.08.72c-1.2.12-1.44.48-.84,1.68l13.32,25.2,3.72-10.32c4.56-12.72,4.32-13.8.84-15l-6.96-2.4c-.72-.24-.96-.36-.96-2.52s.24-2.52.96-2.52c2.76,0,10.44.84,16.8.84s12.36-.84,15.12-.84c.72,0,.96.36.96,2.52Z"/>
      <path class="cls-1" d="M253.62,511.08c-3.84,9.6-11.16,15.24-19.92,15.24-9.24,0-15.6-7.44-15.6-16.8,0-7.32,2.28-11.52,8.52-14.88,5.64-3,14.64-5.64,26.04-8.16v-3.84c0-8.64-2.64-13.92-7.2-13.92-1.2,0-1.68.36-1.92,1.92l-.84,5.76c-1.2,8.64-6.24,12.72-12.96,12.72-3.72,0-7.08-2.28-7.08-6.72,0-7.68,14.88-19.44,33.24-19.44,16.32,0,24,6.48,24,18.12v22.08c0,9.6,1.92,9.84,5.16,7.68.36-.24.48-.36.72-.36,1.08,0,2.88,2.64,2.88,3.36,0,.6-.48,1.08-1.2,1.8l-.48.48c-7.2,7.2-12.36,10.2-18.24,10.2-7.08,0-12.12-4.8-15.12-15.24ZM252.66,509.28v-8.52c0-2.64-1.08-4.56-2.52-6-1.56-1.56-3.48-2.28-4.68-2.28-2.4,0-3.48,1.44-3.48,5.04,0,6.72,4.56,12.6,8.52,12.6,1.2,0,1.8-.48,2.16-.84Z"/>
      <path class="cls-1" d="M289.14,522.72c0-2.16.24-2.52.96-2.64l4.08-.84c1.2-.24,1.44-.48,1.44-1.68v-61.8c0-1.2-.24-1.32-1.44-1.56l-4.08-.72c-.72-.12-.96-.36-.96-2.28,0-1.8.24-2.04.96-2.28,9.84-3.84,20.52-9.96,30.12-16.56.36-.24.6-.36.96-.36.84,0,3.12.96,3.12,1.8,0,2.04-.96,10.2-.96,24.96v58.8c0,1.2.24,1.44,1.44,1.68l4.08.84c.72.12.96.48.96,2.64s-.24,2.52-.96,2.52c-2.76,0-10.56-.84-19.32-.84s-16.68.84-19.44.84c-.72,0-.96-.36-.96-2.52Z"/>
      <path class="cls-1" d="M372.18,462.96c20.88,0,35.28,11.76,35.28,31.2,0,20.4-15.48,32.16-37.68,32.16-20.88,0-35.28-11.76-35.28-31.2,0-20.4,15.48-32.16,37.68-32.16ZM373.14,520.08c1.44,1.44,2.52,1.8,3.72,1.8,2.4,0,4.44-1.56,4.44-7.92,0-12.6-7.32-39.6-12.48-44.76-1.44-1.44-2.52-1.8-3.72-1.8-2.4,0-4.44,1.56-4.44,7.92,0,12.6,7.32,39.6,12.48,44.76Z"/>
      <path class="cls-1" d="M473.58,474.96c0,11.4-6.6,17.04-12.24,17.04-2.16,0-3.96-.72-6.6-2.52-2.88-2.04-5.28-3.12-6.84-3.12-.6,0-1.32.12-1.56.36v30.96c0,1.2.24,1.44,1.44,1.56l7.68.84c.72.12.96.48.96,2.64s-.24,2.52-.96,2.52c-2.76,0-10.56-.84-22.92-.84-8.76,0-16.68.84-19.44.84-.72,0-.96-.24-.96-2.52s.24-2.52.96-2.64l4.08-.84c1.2-.24,1.44-.36,1.44-1.56v-31.68c0-1.2-.24-1.32-1.44-1.56l-4.08-.72c-.72-.12-.96-.36-.96-2.28,0-1.8.24-2.04.96-2.28,9.84-3.84,19.2-9.72,28.8-16.56.36-.24.6-.36.96-.36.84,0,3.12.96,3.12,1.8,0,1.92-.48,11.64-.48,19.44,3.6-11.64,10.32-20.52,17.64-20.52s10.44,5.4,10.44,12Z"/>
      <path class="cls-1" d="M503.46,487.44c1.8,6,5.04,11.76,8.4,15.12,4.56,4.56,7.8,5.76,12.12,5.76,4.92,0,8.4-2.04,11.64-4.92,1.08-.96,4.08,1.32,3.6,2.52-4.92,12.24-18.48,20.4-31.44,20.4-17.88,0-31.68-12.24-31.68-31.2s14.52-32.16,35.88-32.16c17.88,0,27.6,8.64,27.6,20.16,0,1.08,0,2.28-.24,3.12-.12.48-.6.84-1.32.84-9.48.48-23.16.72-34.56.36ZM514.62,473.64c0-4.56-1.92-6.96-5.28-6.96-3.72,0-7.44,3.36-7.44,10.56,0,2.4.36,5.04.84,7.56l3.84-.48c5.52-.6,8.04-4.56,8.04-10.68Z"/>
      <path class="cls-1" d="M625.85,522.72c0,2.16-.24,2.52-.96,2.52-2.76,0-10.56-.84-19.32-.84s-15.84.84-18.6.84c-.72,0-.96-.36-.96-2.52s.24-2.4.96-2.64l3.24-.84c1.2-.36,1.44-.48,1.44-1.68v-23.64c0-11.16-2.64-15.12-10.68-15.12-.84,0-2.04.12-2.64.36v38.4c0,1.2.24,1.32,1.44,1.68l3.24.84c.72.24.96.48.96,2.64s-.24,2.52-.96,2.52c-2.76,0-9.72-.84-18.48-.84s-16.68.84-19.44.84c-.72,0-.96-.36-.96-2.52s.24-2.52.96-2.64l4.08-.84c1.2-.24,1.44-.48,1.44-1.68v-31.56c0-1.2-.24-1.32-1.44-1.56l-4.08-.72c-.72-.12-.96-.36-.96-2.28,0-1.8.24-2.04.96-2.28,9.84-3.84,19.2-9.72,28.8-16.56.36-.24.6-.36.96-.36.84,0,3.12.96,3.12,1.8,0,1.92-.48,5.88-.48,13.08,3.24-7.08,10.92-14.16,21.48-14.16,12.6,0,20.4,7.56,20.4,20.52v34.08c0,1.2.24,1.44,1.44,1.68l4.08.84c.72.12.96.48.96,2.64Z"/>
      <path class="cls-1" d="M647.93,461.76c5.76-2.16,13.08-2.16,20.52-4.8,5.4-1.92,6.48-3.96,6.48-6.36,0-3.36-2.28-6-6.36-6-4.92,0-10.2,4.56-16.32,10.2-5.64,5.16-8.88,6.48-11.28,6.48-2.16,0-3.84-.72-5.4-3.36-2.52-4.32-5.16-10.44-5.16-15.84,0-5.88,4.92-9,13.56-9,26.64,0,41.16,10.92,41.16,30,0,8.28-4.56,15.6-12,19.08-5.88,2.76-13.2,2.76-18.12,4.2-2.4.72-2.52,2.28-2.88,3.84l-.48,2.4c-.24,1.08-.72,1.32-2.4,1.32s-2.04-.12-2.76-1.44c-3.48-6.48-6.36-13.44-6.36-18.96,0-6.96,3.24-10.08,7.8-11.76ZM636.05,510.84c0-8.52,6.84-15,15.72-15s15.72,6.48,15.72,15-6.84,15-15.72,15-15.72-6.48-15.72-15Z"/>
    </g>
  </g>
</svg>