{
	"asset":{
		"generator":"Khronos glTF Blender I/O v4.0.44",
		"version":"2.0"
	},
	"scene":0,
	"scenes":[
		{
			"name":"Scene",
			"nodes":[
				0
			]
		}
	],
	"nodes":[
		{
			"mesh":0,
			"name":"Star1",
			"rotation":[
				0.6168962717056274,
				-0.3455994725227356,
				0.3455994725227356,
				0.6168962717056274
			],
			"scale":[
				0.36004331707954407,
				0.36004331707954407,
				0.36004331707954407
			],
			"translation":[
				0.027514267712831497,
				6.287958145141602,
				0.8419575691223145
			]
		}
	],
	"animations":[
		{
			"channels":[
				{
					"sampler":0,
					"target":{
						"node":0,
						"path":"translation"
					}
				},
				{
					"sampler":1,
					"target":{
						"node":0,
						"path":"rotation"
					}
				},
				{
					"sampler":2,
					"target":{
						"node":0,
						"path":"scale"
					}
				}
			],
			"name":"Star1Action",
			"samplers":[
				{
					"input":4,
					"interpolation":"LINEAR",
					"output":5
				},
				{
					"input":4,
					"interpolation":"LINEAR",
					"output":6
				},
				{
					"input":7,
					"interpolation":"STEP",
					"output":8
				}
			]
		}
	],
	"materials":[
		{
			"doubleSided":true,
			"name":"Star",
			"pbrMetallicRoughness":{
				"baseColorFactor":[
					0.6691356301307678,
					0.09579835832118988,
					0.8003470301628113,
					1
				],
				"metallicFactor":0,
				"roughnessFactor":0.5
			}
		}
	],
	"meshes":[
		{
			"name":"Circle.001",
			"primitives":[
				{
					"attributes":{
						"POSITION":0,
						"NORMAL":1,
						"TEXCOORD_0":2
					},
					"indices":3,
					"material":0
				}
			]
		}
	],
	"accessors":[
		{
			"bufferView":0,
			"componentType":5126,
			"count":60,
			"max":[
				0.9524507522583008,
				0.15080927312374115,
				0.80901700258255
			],
			"min":[
				-0.9510565400123596,
				0,
				-1.0012837648391724
			],
			"type":"VEC3"
		},
		{
			"bufferView":1,
			"componentType":5126,
			"count":60,
			"type":"VEC3"
		},
		{
			"bufferView":2,
			"componentType":5126,
			"count":60,
			"type":"VEC2"
		},
		{
			"bufferView":3,
			"componentType":5123,
			"count":108,
			"type":"SCALAR"
		},
		{
			"bufferView":4,
			"componentType":5126,
			"count":241,
			"max":[
				10
			],
			"min":[
				0
			],
			"type":"SCALAR"
		},
		{
			"bufferView":5,
			"componentType":5126,
			"count":241,
			"type":"VEC3"
		},
		{
			"bufferView":6,
			"componentType":5126,
			"count":241,
			"type":"VEC4"
		},
		{
			"bufferView":7,
			"componentType":5126,
			"count":2,
			"max":[
				10
			],
			"min":[
				0
			],
			"type":"SCALAR"
		},
		{
			"bufferView":8,
			"componentType":5126,
			"count":2,
			"type":"VEC3"
		}
	],
	"bufferViews":[
		{
			"buffer":0,
			"byteLength":720,
			"byteOffset":0,
			"target":34962
		},
		{
			"buffer":0,
			"byteLength":720,
			"byteOffset":720,
			"target":34962
		},
		{
			"buffer":0,
			"byteLength":480,
			"byteOffset":1440,
			"target":34962
		},
		{
			"buffer":0,
			"byteLength":216,
			"byteOffset":1920,
			"target":34963
		},
		{
			"buffer":0,
			"byteLength":964,
			"byteOffset":2136
		},
		{
			"buffer":0,
			"byteLength":2892,
			"byteOffset":3100
		},
		{
			"buffer":0,
			"byteLength":3856,
			"byteOffset":5992
		},
		{
			"buffer":0,
			"byteLength":8,
			"byteOffset":9848
		},
		{
			"buffer":0,
			"byteLength":24,
			"byteOffset":9856
		}
	],
	"buffers":[
		{
			"byteLength":9880,
			"uri":"Blender_File_Animated_Again.bin"
		}
	]
}
