{
	"asset":{
		"generator":"Khronos glTF Blender I/O v4.0.44",
		"version":"2.0"
	},
	"scene":0,
	"scenes":[
		{
			"name":"Scene",
			"nodes":[
				0,
				1,
				2,
				3,
				4,
				5,
				6
			]
		}
	],
	"nodes":[
		{
			"mesh":0,
			"name":"MainCross",
			"scale":[
				0.8795772194862366,
				4.294502258300781,
				0.44515523314476013
			],
			"translation":[
				0,
				0,
				3.8785057067871094
			]
		},
		{
			"mesh":1,
			"name":"LeftCross",
			"rotation":[
				0,
				0.3220091462135315,
				0,
				0.9467365741729736
			],
			"scale":[
				0.5504986643791199,
				2.687788724899292,
				0.27860814332962036
			],
			"translation":[
				-6.273777961730957,
				-0.7348859310150146,
				0
			]
		},
		{
			"mesh":2,
			"name":"RightCross",
			"rotation":[
				0,
				-0.22772853076457977,
				0,
				0.9737246632575989
			],
			"scale":[
				0.5504986643791199,
				2.687788724899292,
				0.27860814332962036
			],
			"translation":[
				6.441891670227051,
				-0.7348859310150146,
				0
			]
		},
		{
			"mesh":3,
			"name":"Star1",
			"rotation":[
				0.7071068286895752,
				0,
				0,
				0.7071068286895752
			],
			"scale":[
				0.6015381217002869,
				0.6015381217002869,
				0.6015381217002869
			],
			"translation":[
				0,
				5.813244342803955,
				0
			]
		},
		{
			"mesh":4,
			"name":"Star2",
			"rotation":[
				0.7071068286895752,
				0,
				0,
				0.7071068286895752
			],
			"scale":[
				0.6015381217002869,
				0.6015381217002869,
				0.6015381217002869
			],
			"translation":[
				6.434079647064209,
				3.132378578186035,
				0
			]
		},
		{
			"mesh":5,
			"name":"Star3",
			"rotation":[
				0.7071068286895752,
				0,
				0,
				0.7071068286895752
			],
			"scale":[
				0.6015381217002869,
				0.6015381217002869,
				0.6015381217002869
			],
			"translation":[
				-6.40585994720459,
				3.132378578186035,
				0
			]
		},
		{
			"mesh":6,
			"name":"Star4",
			"rotation":[
				0.7071068286895752,
				0,
				0,
				0.7071068286895752
			],
			"scale":[
				0.6015381217002869,
				0.6015381217002869,
				0.6015381217002869
			],
			"translation":[
				0,
				-2.3939690589904785,
				5.9156670570373535
			]
		}
	],
	"materials":[
		{
			"doubleSided":true,
			"name":"Material",
			"pbrMetallicRoughness":{}
		},
		{
			"doubleSided":true,
			"name":"Material.001",
			"pbrMetallicRoughness":{
				"baseColorFactor":[
					0.800000011920929,
					0.800000011920929,
					0.800000011920929,
					1
				],
				"metallicFactor":0,
				"roughnessFactor":0.5
			}
		},
		{
			"doubleSided":true,
			"name":"Material.002",
			"pbrMetallicRoughness":{
				"baseColorFactor":[
					0.800000011920929,
					0.800000011920929,
					0.800000011920929,
					1
				],
				"metallicFactor":0,
				"roughnessFactor":0.5
			}
		}
	],
	"meshes":[
		{
			"name":"Cube",
			"primitives":[
				{
					"attributes":{
						"POSITION":0,
						"NORMAL":1,
						"TEXCOORD_0":2
					},
					"indices":3,
					"material":0
				}
			]
		},
		{
			"name":"Cube.001",
			"primitives":[
				{
					"attributes":{
						"POSITION":4,
						"NORMAL":5,
						"TEXCOORD_0":6
					},
					"indices":3,
					"material":1
				}
			]
		},
		{
			"name":"Cube.002",
			"primitives":[
				{
					"attributes":{
						"POSITION":7,
						"NORMAL":8,
						"TEXCOORD_0":9
					},
					"indices":3,
					"material":2
				}
			]
		},
		{
			"name":"Circle.001",
			"primitives":[
				{
					"attributes":{
						"POSITION":10,
						"NORMAL":11,
						"TEXCOORD_0":12
					},
					"indices":13
				}
			]
		},
		{
			"name":"Circle.002",
			"primitives":[
				{
					"attributes":{
						"POSITION":14,
						"NORMAL":15,
						"TEXCOORD_0":16
					},
					"indices":13
				}
			]
		},
		{
			"name":"Circle.003",
			"primitives":[
				{
					"attributes":{
						"POSITION":17,
						"NORMAL":18,
						"TEXCOORD_0":19
					},
					"indices":13
				}
			]
		},
		{
			"name":"Circle.004",
			"primitives":[
				{
					"attributes":{
						"POSITION":20,
						"NORMAL":21,
						"TEXCOORD_0":22
					},
					"indices":13
				}
			]
		}
	],
	"accessors":[
		{
			"bufferView":0,
			"componentType":5126,
			"count":74,
			"max":[
				2.861711025238037,
				1,
				1
			],
			"min":[
				-2.861711025238037,
				-1,
				-1
			],
			"type":"VEC3"
		},
		{
			"bufferView":1,
			"componentType":5126,
			"count":74,
			"type":"VEC3"
		},
		{
			"bufferView":2,
			"componentType":5126,
			"count":74,
			"type":"VEC2"
		},
		{
			"bufferView":3,
			"componentType":5123,
			"count":132,
			"type":"SCALAR"
		},
		{
			"bufferView":4,
			"componentType":5126,
			"count":74,
			"max":[
				2.861711025238037,
				1,
				1
			],
			"min":[
				-2.861711025238037,
				-1,
				-1
			],
			"type":"VEC3"
		},
		{
			"bufferView":5,
			"componentType":5126,
			"count":74,
			"type":"VEC3"
		},
		{
			"bufferView":6,
			"componentType":5126,
			"count":74,
			"type":"VEC2"
		},
		{
			"bufferView":7,
			"componentType":5126,
			"count":74,
			"max":[
				2.861711025238037,
				1,
				1
			],
			"min":[
				-2.861711025238037,
				-1,
				-1
			],
			"type":"VEC3"
		},
		{
			"bufferView":8,
			"componentType":5126,
			"count":74,
			"type":"VEC3"
		},
		{
			"bufferView":9,
			"componentType":5126,
			"count":74,
			"type":"VEC2"
		},
		{
			"bufferView":10,
			"componentType":5126,
			"count":60,
			"max":[
				0.9524507522583008,
				0.15080927312374115,
				0.80901700258255
			],
			"min":[
				-0.9510565400123596,
				0,
				-1.0012837648391724
			],
			"type":"VEC3"
		},
		{
			"bufferView":11,
			"componentType":5126,
			"count":60,
			"type":"VEC3"
		},
		{
			"bufferView":12,
			"componentType":5126,
			"count":60,
			"type":"VEC2"
		},
		{
			"bufferView":13,
			"componentType":5123,
			"count":108,
			"type":"SCALAR"
		},
		{
			"bufferView":14,
			"componentType":5126,
			"count":60,
			"max":[
				0.9524507522583008,
				0.15080927312374115,
				0.80901700258255
			],
			"min":[
				-0.9510565400123596,
				0,
				-1.0012837648391724
			],
			"type":"VEC3"
		},
		{
			"bufferView":15,
			"componentType":5126,
			"count":60,
			"type":"VEC3"
		},
		{
			"bufferView":16,
			"componentType":5126,
			"count":60,
			"type":"VEC2"
		},
		{
			"bufferView":17,
			"componentType":5126,
			"count":60,
			"max":[
				0.9524507522583008,
				0.15080927312374115,
				0.80901700258255
			],
			"min":[
				-0.9510565400123596,
				0,
				-1.0012837648391724
			],
			"type":"VEC3"
		},
		{
			"bufferView":18,
			"componentType":5126,
			"count":60,
			"type":"VEC3"
		},
		{
			"bufferView":19,
			"componentType":5126,
			"count":60,
			"type":"VEC2"
		},
		{
			"bufferView":20,
			"componentType":5126,
			"count":60,
			"max":[
				0.9524507522583008,
				0.15080927312374115,
				0.80901700258255
			],
			"min":[
				-0.9510565400123596,
				0,
				-1.0012837648391724
			],
			"type":"VEC3"
		},
		{
			"bufferView":21,
			"componentType":5126,
			"count":60,
			"type":"VEC3"
		},
		{
			"bufferView":22,
			"componentType":5126,
			"count":60,
			"type":"VEC2"
		}
	],
	"bufferViews":[
		{
			"buffer":0,
			"byteLength":888,
			"byteOffset":0,
			"target":34962
		},
		{
			"buffer":0,
			"byteLength":888,
			"byteOffset":888,
			"target":34962
		},
		{
			"buffer":0,
			"byteLength":592,
			"byteOffset":1776,
			"target":34962
		},
		{
			"buffer":0,
			"byteLength":264,
			"byteOffset":2368,
			"target":34963
		},
		{
			"buffer":0,
			"byteLength":888,
			"byteOffset":2632,
			"target":34962
		},
		{
			"buffer":0,
			"byteLength":888,
			"byteOffset":3520,
			"target":34962
		},
		{
			"buffer":0,
			"byteLength":592,
			"byteOffset":4408,
			"target":34962
		},
		{
			"buffer":0,
			"byteLength":888,
			"byteOffset":5000,
			"target":34962
		},
		{
			"buffer":0,
			"byteLength":888,
			"byteOffset":5888,
			"target":34962
		},
		{
			"buffer":0,
			"byteLength":592,
			"byteOffset":6776,
			"target":34962
		},
		{
			"buffer":0,
			"byteLength":720,
			"byteOffset":7368,
			"target":34962
		},
		{
			"buffer":0,
			"byteLength":720,
			"byteOffset":8088,
			"target":34962
		},
		{
			"buffer":0,
			"byteLength":480,
			"byteOffset":8808,
			"target":34962
		},
		{
			"buffer":0,
			"byteLength":216,
			"byteOffset":9288,
			"target":34963
		},
		{
			"buffer":0,
			"byteLength":720,
			"byteOffset":9504,
			"target":34962
		},
		{
			"buffer":0,
			"byteLength":720,
			"byteOffset":10224,
			"target":34962
		},
		{
			"buffer":0,
			"byteLength":480,
			"byteOffset":10944,
			"target":34962
		},
		{
			"buffer":0,
			"byteLength":720,
			"byteOffset":11424,
			"target":34962
		},
		{
			"buffer":0,
			"byteLength":720,
			"byteOffset":12144,
			"target":34962
		},
		{
			"buffer":0,
			"byteLength":480,
			"byteOffset":12864,
			"target":34962
		},
		{
			"buffer":0,
			"byteLength":720,
			"byteOffset":13344,
			"target":34962
		},
		{
			"buffer":0,
			"byteLength":720,
			"byteOffset":14064,
			"target":34962
		},
		{
			"buffer":0,
			"byteLength":480,
			"byteOffset":14784,
			"target":34962
		}
	],
	"buffers":[
		{
			"byteLength":15264,
			"uri":"Blender_File.bin"
		}
	]
}
