{
	"asset":{
		"generator":"Khronos glTF Blender I/O v4.0.44",
		"version":"2.0"
	},
	"scene":0,
	"scenes":[
		{
			"name":"Scene",
			"nodes":[
				0,
				1,
				2,
				3,
				4,
				5,
				6,
				7,
				8,
				9,
				10,
				11,
				12
			]
		}
	],
	"nodes":[
		{
			"mesh":0,
			"name":"Star1",
			"rotation":[
				0.6168962717056274,
				-0.3455994725227356,
				0.3455994725227356,
				0.6168962717056274
			],
			"scale":[
				0.36004331707954407,
				0.36004331707954407,
				0.36004331707954407
			],
			"translation":[
				0.027514267712831497,
				6.287958145141602,
				0.8419575691223145
			]
		},
		{
			"mesh":1,
			"name":"Star2",
			"rotation":[
				0.23747174441814423,
				0,
				0,
				0.9713944792747498
			],
			"scale":[
				0.36004331707954407,
				0.36004331707954407,
				0.36004331707954407
			],
			"translation":[
				2.400341510772705,
				2.4167661666870117,
				0.8419575691223145
			]
		},
		{
			"mesh":2,
			"name":"Star3",
			"rotation":[
				0.5198934674263,
				0.4792816638946533,
				-0.11595039814710617,
				0.6975352764129639
			],
			"scale":[
				0.36004334688186646,
				0.36004331707954407,
				0.36004331707954407
			],
			"translation":[
				-4.729398250579834,
				4.90733003616333,
				0.8419575691223145
			]
		},
		{
			"mesh":3,
			"name":"Star4",
			"rotation":[
				0.979426920413971,
				0,
				0,
				0.20179958641529083
			],
			"scale":[
				0.36004331707954407,
				0.36004334688186646,
				0.36004334688186646
			],
			"translation":[
				0.027514267712831497,
				1.903876781463623,
				5.009918212890625
			]
		},
		{
			"mesh":4,
			"name":"MiddleVenus",
			"rotation":[
				0.7071068286895752,
				0,
				0,
				0.7071068286895752
			],
			"scale":[
				1.0089929103851318,
				1.0089929103851318,
				1.0089929103851318
			],
			"translation":[
				0.027514267712831497,
				3.483339786529541,
				3.1321654319763184
			]
		},
		{
			"mesh":5,
			"name":"RightVenus",
			"rotation":[
				0.6774035096168518,
				0.20279176533222198,
				0.20279176533222198,
				0.6774035096168518
			],
			"scale":[
				0.7943341732025146,
				0.7943342328071594,
				0.7943341732025146
			],
			"translation":[
				2.6356515884399414,
				5.778751373291016,
				1.8556444644927979
			]
		},
		{
			"mesh":6,
			"name":"LeftVenus",
			"rotation":[
				0.6621302366256714,
				-0.24816031754016876,
				-0.24816031754016876,
				0.6621302962303162
			],
			"scale":[
				1.0089929103851318,
				1.0089929103851318,
				1.0089929103851318
			],
			"translation":[
				-2.1545000076293945,
				5.1874165534973145,
				1.8556444644927979
			]
		},
		{
			"mesh":7,
			"name":"MiddleVenus.001",
			"rotation":[
				0.7071068286895752,
				0,
				0,
				0.7071068286895752
			],
			"scale":[
				0.568543553352356,
				0.568543553352356,
				0.568543553352356
			],
			"translation":[
				0.027514267712831497,
				4.234042644500732,
				-0.6816074848175049
			]
		},
		{
			"mesh":8,
			"name":"MiddleVenus.002",
			"rotation":[
				0.6566555500030518,
				-0.2623043656349182,
				-0.2623043358325958,
				0.6566555500030518
			],
			"scale":[
				0.568543553352356,
				0.568543553352356,
				0.568543553352356
			],
			"translation":[
				-1.5933457612991333,
				8.471456527709961,
				-0.6816074848175049
			]
		},
		{
			"mesh":9,
			"name":"MiddleVenus.003",
			"rotation":[
				-0.262304425239563,
				0.6566556096076965,
				-0.6566554307937622,
				0.2623042166233063
			],
			"scale":[
				0.568543553352356,
				0.568543553352356,
				0.568543553352356
			],
			"translation":[
				1.665414571762085,
				8.471456527709961,
				-0.6816074848175049
			]
		},
		{
			"mesh":10,
			"name":"MiddleVenus.004",
			"rotation":[
				0.6566555500030518,
				-0.2623043656349182,
				-0.2623043358325958,
				0.6566555500030518
			],
			"scale":[
				0.568543553352356,
				0.568543553352356,
				0.568543553352356
			],
			"translation":[
				-1.5933457612991333,
				1.9880175590515137,
				3.3315622806549072
			]
		},
		{
			"mesh":11,
			"name":"MiddleVenus.005",
			"rotation":[
				-0.262304425239563,
				0.6566556096076965,
				-0.6566554307937622,
				0.2623042166233063
			],
			"scale":[
				0.568543553352356,
				0.568543553352356,
				0.568543553352356
			],
			"translation":[
				2.5113606452941895,
				1.9880175590515137,
				3.3315622806549072
			]
		},
		{
			"mesh":12,
			"name":"Curve.011",
			"rotation":[
				0.7071068286895752,
				0,
				0,
				0.7071067690849304
			],
			"scale":[
				12.289501190185547,
				12.289501190185547,
				12.289501190185547
			],
			"translation":[
				0.04151168465614319,
				2.042642593383789,
				6.357093334197998
			]
		}
	],
	"materials":[
		{
			"doubleSided":true,
			"name":"Star",
			"pbrMetallicRoughness":{
				"baseColorFactor":[
					0.6691356301307678,
					0.09579835832118988,
					0.8003470301628113,
					1
				],
				"metallicFactor":0,
				"roughnessFactor":0.5
			}
		},
		{
			"doubleSided":true,
			"name":"Material",
			"pbrMetallicRoughness":{}
		},
		{
			"doubleSided":true,
			"name":"Material.001",
			"pbrMetallicRoughness":{
				"baseColorFactor":[
					0.5668163895606995,
					0.151856929063797,
					0.8002276420593262,
					1
				],
				"metallicFactor":0.8500000238418579,
				"roughnessFactor":0.3763636350631714
			}
		}
	],
	"meshes":[
		{
			"name":"Circle.001",
			"primitives":[
				{
					"attributes":{
						"POSITION":0,
						"NORMAL":1,
						"TEXCOORD_0":2
					},
					"indices":3,
					"material":0
				}
			]
		},
		{
			"name":"Circle.002",
			"primitives":[
				{
					"attributes":{
						"POSITION":4,
						"NORMAL":5,
						"TEXCOORD_0":6
					},
					"indices":3,
					"material":0
				}
			]
		},
		{
			"name":"Circle.003",
			"primitives":[
				{
					"attributes":{
						"POSITION":7,
						"NORMAL":8,
						"TEXCOORD_0":9
					},
					"indices":3,
					"material":0
				}
			]
		},
		{
			"name":"Circle.004",
			"primitives":[
				{
					"attributes":{
						"POSITION":10,
						"NORMAL":11,
						"TEXCOORD_0":12
					},
					"indices":3,
					"material":0
				}
			]
		},
		{
			"name":"Cylinder",
			"primitives":[
				{
					"attributes":{
						"POSITION":13,
						"NORMAL":14,
						"TEXCOORD_0":15
					},
					"indices":16,
					"material":1
				}
			]
		},
		{
			"name":"Cylinder.001",
			"primitives":[
				{
					"attributes":{
						"POSITION":17,
						"NORMAL":18,
						"TEXCOORD_0":19
					},
					"indices":20,
					"material":2
				}
			]
		},
		{
			"name":"Cylinder.002",
			"primitives":[
				{
					"attributes":{
						"POSITION":21,
						"NORMAL":22,
						"TEXCOORD_0":23
					},
					"indices":20,
					"material":2
				}
			]
		},
		{
			"name":"Cylinder.003",
			"primitives":[
				{
					"attributes":{
						"POSITION":24,
						"NORMAL":25,
						"TEXCOORD_0":26
					},
					"indices":16,
					"material":1
				}
			]
		},
		{
			"name":"Cylinder.004",
			"primitives":[
				{
					"attributes":{
						"POSITION":27,
						"NORMAL":28,
						"TEXCOORD_0":29
					},
					"indices":16,
					"material":1
				}
			]
		},
		{
			"name":"Cylinder.005",
			"primitives":[
				{
					"attributes":{
						"POSITION":30,
						"NORMAL":31,
						"TEXCOORD_0":32
					},
					"indices":16,
					"material":1
				}
			]
		},
		{
			"name":"Cylinder.006",
			"primitives":[
				{
					"attributes":{
						"POSITION":33,
						"NORMAL":34,
						"TEXCOORD_0":35
					},
					"indices":16,
					"material":1
				}
			]
		},
		{
			"name":"Cylinder.007",
			"primitives":[
				{
					"attributes":{
						"POSITION":36,
						"NORMAL":37,
						"TEXCOORD_0":38
					},
					"indices":16,
					"material":1
				}
			]
		},
		{
			"name":"Curve.011",
			"primitives":[
				{
					"attributes":{
						"POSITION":39,
						"NORMAL":40,
						"TEXCOORD_0":41
					},
					"indices":42,
					"material":2
				}
			]
		}
	],
	"accessors":[
		{
			"bufferView":0,
			"componentType":5126,
			"count":60,
			"max":[
				0.9524507522583008,
				0.15080927312374115,
				0.80901700258255
			],
			"min":[
				-0.9510565400123596,
				0,
				-1.0012837648391724
			],
			"type":"VEC3"
		},
		{
			"bufferView":1,
			"componentType":5126,
			"count":60,
			"type":"VEC3"
		},
		{
			"bufferView":2,
			"componentType":5126,
			"count":60,
			"type":"VEC2"
		},
		{
			"bufferView":3,
			"componentType":5123,
			"count":108,
			"type":"SCALAR"
		},
		{
			"bufferView":4,
			"componentType":5126,
			"count":60,
			"max":[
				0.9524507522583008,
				0.15080927312374115,
				0.80901700258255
			],
			"min":[
				-0.9510565400123596,
				0,
				-1.0012837648391724
			],
			"type":"VEC3"
		},
		{
			"bufferView":5,
			"componentType":5126,
			"count":60,
			"type":"VEC3"
		},
		{
			"bufferView":6,
			"componentType":5126,
			"count":60,
			"type":"VEC2"
		},
		{
			"bufferView":7,
			"componentType":5126,
			"count":60,
			"max":[
				0.9524507522583008,
				0.15080927312374115,
				0.80901700258255
			],
			"min":[
				-0.9510565400123596,
				0,
				-1.0012837648391724
			],
			"type":"VEC3"
		},
		{
			"bufferView":8,
			"componentType":5126,
			"count":60,
			"type":"VEC3"
		},
		{
			"bufferView":9,
			"componentType":5126,
			"count":60,
			"type":"VEC2"
		},
		{
			"bufferView":10,
			"componentType":5126,
			"count":60,
			"max":[
				0.9524507522583008,
				0.15080927312374115,
				0.80901700258255
			],
			"min":[
				-0.9510565400123596,
				0,
				-1.0012837648391724
			],
			"type":"VEC3"
		},
		{
			"bufferView":11,
			"componentType":5126,
			"count":60,
			"type":"VEC3"
		},
		{
			"bufferView":12,
			"componentType":5126,
			"count":60,
			"type":"VEC2"
		},
		{
			"bufferView":13,
			"componentType":5126,
			"count":486,
			"max":[
				1,
				0.26058828830718994,
				3.813965320587158
			],
			"min":[
				-1,
				-0.2605900764465332,
				-1
			],
			"type":"VEC3"
		},
		{
			"bufferView":14,
			"componentType":5126,
			"count":486,
			"type":"VEC3"
		},
		{
			"bufferView":15,
			"componentType":5126,
			"count":486,
			"type":"VEC2"
		},
		{
			"bufferView":16,
			"componentType":5123,
			"count":732,
			"type":"SCALAR"
		},
		{
			"bufferView":17,
			"componentType":5126,
			"count":340,
			"max":[
				1,
				0.26058828830718994,
				3.813965320587158
			],
			"min":[
				-1,
				-0.2605900764465332,
				-1
			],
			"type":"VEC3"
		},
		{
			"bufferView":18,
			"componentType":5126,
			"count":340,
			"type":"VEC3"
		},
		{
			"bufferView":19,
			"componentType":5126,
			"count":340,
			"type":"VEC2"
		},
		{
			"bufferView":20,
			"componentType":5123,
			"count":732,
			"type":"SCALAR"
		},
		{
			"bufferView":21,
			"componentType":5126,
			"count":340,
			"max":[
				1,
				0.26058828830718994,
				3.813965320587158
			],
			"min":[
				-1,
				-0.2605900764465332,
				-1
			],
			"type":"VEC3"
		},
		{
			"bufferView":22,
			"componentType":5126,
			"count":340,
			"type":"VEC3"
		},
		{
			"bufferView":23,
			"componentType":5126,
			"count":340,
			"type":"VEC2"
		},
		{
			"bufferView":24,
			"componentType":5126,
			"count":486,
			"max":[
				1,
				0.26058828830718994,
				3.813965320587158
			],
			"min":[
				-1,
				-0.2605900764465332,
				-1
			],
			"type":"VEC3"
		},
		{
			"bufferView":25,
			"componentType":5126,
			"count":486,
			"type":"VEC3"
		},
		{
			"bufferView":26,
			"componentType":5126,
			"count":486,
			"type":"VEC2"
		},
		{
			"bufferView":27,
			"componentType":5126,
			"count":486,
			"max":[
				1,
				0.26058828830718994,
				3.813965320587158
			],
			"min":[
				-1,
				-0.2605900764465332,
				-1
			],
			"type":"VEC3"
		},
		{
			"bufferView":28,
			"componentType":5126,
			"count":486,
			"type":"VEC3"
		},
		{
			"bufferView":29,
			"componentType":5126,
			"count":486,
			"type":"VEC2"
		},
		{
			"bufferView":30,
			"componentType":5126,
			"count":486,
			"max":[
				1,
				0.26058828830718994,
				3.813965320587158
			],
			"min":[
				-1,
				-0.2605900764465332,
				-1
			],
			"type":"VEC3"
		},
		{
			"bufferView":31,
			"componentType":5126,
			"count":486,
			"type":"VEC3"
		},
		{
			"bufferView":32,
			"componentType":5126,
			"count":486,
			"type":"VEC2"
		},
		{
			"bufferView":33,
			"componentType":5126,
			"count":486,
			"max":[
				1,
				0.26058828830718994,
				3.813965320587158
			],
			"min":[
				-1,
				-0.2605900764465332,
				-1
			],
			"type":"VEC3"
		},
		{
			"bufferView":34,
			"componentType":5126,
			"count":486,
			"type":"VEC3"
		},
		{
			"bufferView":35,
			"componentType":5126,
			"count":486,
			"type":"VEC2"
		},
		{
			"bufferView":36,
			"componentType":5126,
			"count":486,
			"max":[
				1,
				0.26058828830718994,
				3.813965320587158
			],
			"min":[
				-1,
				-0.2605900764465332,
				-1
			],
			"type":"VEC3"
		},
		{
			"bufferView":37,
			"componentType":5126,
			"count":486,
			"type":"VEC3"
		},
		{
			"bufferView":38,
			"componentType":5126,
			"count":486,
			"type":"VEC2"
		},
		{
			"bufferView":39,
			"componentType":5126,
			"count":65050,
			"max":[
				0.11846213787794113,
				0.013574933633208275,
				0.0717032179236412
			],
			"min":[
				-0.1165744960308075,
				-0.013574405573308468,
				-0.0768076479434967
			],
			"type":"VEC3"
		},
		{
			"bufferView":40,
			"componentType":5126,
			"count":65050,
			"type":"VEC3"
		},
		{
			"bufferView":41,
			"componentType":5126,
			"count":65050,
			"type":"VEC2"
		},
		{
			"bufferView":42,
			"componentType":5123,
			"count":134976,
			"type":"SCALAR"
		}
	],
	"bufferViews":[
		{
			"buffer":0,
			"byteLength":720,
			"byteOffset":0,
			"target":34962
		},
		{
			"buffer":0,
			"byteLength":720,
			"byteOffset":720,
			"target":34962
		},
		{
			"buffer":0,
			"byteLength":480,
			"byteOffset":1440,
			"target":34962
		},
		{
			"buffer":0,
			"byteLength":216,
			"byteOffset":1920,
			"target":34963
		},
		{
			"buffer":0,
			"byteLength":720,
			"byteOffset":2136,
			"target":34962
		},
		{
			"buffer":0,
			"byteLength":720,
			"byteOffset":2856,
			"target":34962
		},
		{
			"buffer":0,
			"byteLength":480,
			"byteOffset":3576,
			"target":34962
		},
		{
			"buffer":0,
			"byteLength":720,
			"byteOffset":4056,
			"target":34962
		},
		{
			"buffer":0,
			"byteLength":720,
			"byteOffset":4776,
			"target":34962
		},
		{
			"buffer":0,
			"byteLength":480,
			"byteOffset":5496,
			"target":34962
		},
		{
			"buffer":0,
			"byteLength":720,
			"byteOffset":5976,
			"target":34962
		},
		{
			"buffer":0,
			"byteLength":720,
			"byteOffset":6696,
			"target":34962
		},
		{
			"buffer":0,
			"byteLength":480,
			"byteOffset":7416,
			"target":34962
		},
		{
			"buffer":0,
			"byteLength":5832,
			"byteOffset":7896,
			"target":34962
		},
		{
			"buffer":0,
			"byteLength":5832,
			"byteOffset":13728,
			"target":34962
		},
		{
			"buffer":0,
			"byteLength":3888,
			"byteOffset":19560,
			"target":34962
		},
		{
			"buffer":0,
			"byteLength":1464,
			"byteOffset":23448,
			"target":34963
		},
		{
			"buffer":0,
			"byteLength":4080,
			"byteOffset":24912,
			"target":34962
		},
		{
			"buffer":0,
			"byteLength":4080,
			"byteOffset":28992,
			"target":34962
		},
		{
			"buffer":0,
			"byteLength":2720,
			"byteOffset":33072,
			"target":34962
		},
		{
			"buffer":0,
			"byteLength":1464,
			"byteOffset":35792,
			"target":34963
		},
		{
			"buffer":0,
			"byteLength":4080,
			"byteOffset":37256,
			"target":34962
		},
		{
			"buffer":0,
			"byteLength":4080,
			"byteOffset":41336,
			"target":34962
		},
		{
			"buffer":0,
			"byteLength":2720,
			"byteOffset":45416,
			"target":34962
		},
		{
			"buffer":0,
			"byteLength":5832,
			"byteOffset":48136,
			"target":34962
		},
		{
			"buffer":0,
			"byteLength":5832,
			"byteOffset":53968,
			"target":34962
		},
		{
			"buffer":0,
			"byteLength":3888,
			"byteOffset":59800,
			"target":34962
		},
		{
			"buffer":0,
			"byteLength":5832,
			"byteOffset":63688,
			"target":34962
		},
		{
			"buffer":0,
			"byteLength":5832,
			"byteOffset":69520,
			"target":34962
		},
		{
			"buffer":0,
			"byteLength":3888,
			"byteOffset":75352,
			"target":34962
		},
		{
			"buffer":0,
			"byteLength":5832,
			"byteOffset":79240,
			"target":34962
		},
		{
			"buffer":0,
			"byteLength":5832,
			"byteOffset":85072,
			"target":34962
		},
		{
			"buffer":0,
			"byteLength":3888,
			"byteOffset":90904,
			"target":34962
		},
		{
			"buffer":0,
			"byteLength":5832,
			"byteOffset":94792,
			"target":34962
		},
		{
			"buffer":0,
			"byteLength":5832,
			"byteOffset":100624,
			"target":34962
		},
		{
			"buffer":0,
			"byteLength":3888,
			"byteOffset":106456,
			"target":34962
		},
		{
			"buffer":0,
			"byteLength":5832,
			"byteOffset":110344,
			"target":34962
		},
		{
			"buffer":0,
			"byteLength":5832,
			"byteOffset":116176,
			"target":34962
		},
		{
			"buffer":0,
			"byteLength":3888,
			"byteOffset":122008,
			"target":34962
		},
		{
			"buffer":0,
			"byteLength":780600,
			"byteOffset":125896,
			"target":34962
		},
		{
			"buffer":0,
			"byteLength":780600,
			"byteOffset":906496,
			"target":34962
		},
		{
			"buffer":0,
			"byteLength":520400,
			"byteOffset":1687096,
			"target":34962
		},
		{
			"buffer":0,
			"byteLength":269952,
			"byteOffset":2207496,
			"target":34963
		}
	],
	"buffers":[
		{
			"byteLength":2477448,
			"uri":"Blender_File_Yarr.bin"
		}
	]
}
