{
	"asset":{
		"generator":"Khronos glTF Blender I/O v4.0.44",
		"version":"2.0"
	},
	"scene":0,
	"scenes":[
		{
			"name":"Scene",
			"nodes":[
				0,
				1,
				2,
				3,
				4,
				5,
				6
			]
		}
	],
	"nodes":[
		{
			"mesh":0,
			"name":"Star1",
			"rotation":[
				0.6168962717056274,
				-0.3455994725227356,
				0.3455994725227356,
				0.6168962717056274
			],
			"scale":[
				0.36004331707954407,
				0.36004331707954407,
				0.36004331707954407
			],
			"translation":[
				0.027514267712831497,
				6.287958145141602,
				0.8419575691223145
			]
		},
		{
			"mesh":1,
			"name":"Star2",
			"rotation":[
				0.23747174441814423,
				0,
				0,
				0.9713944792747498
			],
			"scale":[
				0.36004331707954407,
				0.36004331707954407,
				0.36004331707954407
			],
			"translation":[
				2.400341510772705,
				2.4167661666870117,
				0.8419575691223145
			]
		},
		{
			"mesh":2,
			"name":"Star3",
			"rotation":[
				0.5198934674263,
				0.4792816638946533,
				-0.11595039814710617,
				0.6975352764129639
			],
			"scale":[
				0.36004334688186646,
				0.36004331707954407,
				0.36004331707954407
			],
			"translation":[
				-4.729398250579834,
				4.90733003616333,
				0.8419575691223145
			]
		},
		{
			"mesh":3,
			"name":"Star4",
			"rotation":[
				0.979426920413971,
				0,
				0,
				0.20179958641529083
			],
			"scale":[
				0.36004331707954407,
				0.36004334688186646,
				0.36004334688186646
			],
			"translation":[
				0.027514267712831497,
				1.903876781463623,
				5.009918212890625
			]
		},
		{
			"mesh":4,
			"name":"MiddleVenus",
			"rotation":[
				0.7071068286895752,
				0,
				0,
				0.7071068286895752
			],
			"scale":[
				1.0089929103851318,
				1.0089929103851318,
				1.0089929103851318
			],
			"translation":[
				0.027514267712831497,
				3.483339786529541,
				3.1321654319763184
			]
		},
		{
			"mesh":5,
			"name":"RightVenus",
			"rotation":[
				0.6774035096168518,
				0.20279176533222198,
				0.20279176533222198,
				0.6774035096168518
			],
			"scale":[
				0.7943341732025146,
				0.7943342328071594,
				0.7943341732025146
			],
			"translation":[
				2.6356515884399414,
				5.778751373291016,
				1.8556444644927979
			]
		},
		{
			"mesh":6,
			"name":"LeftVenus",
			"rotation":[
				0.6621302366256714,
				-0.24816031754016876,
				-0.24816031754016876,
				0.6621302962303162
			],
			"scale":[
				1.0089929103851318,
				1.0089929103851318,
				1.0089929103851318
			],
			"translation":[
				-2.1545000076293945,
				5.1874165534973145,
				1.8556444644927979
			]
		}
	],
	"animations":[
		{
			"channels":[
				{
					"sampler":0,
					"target":{
						"node":0,
						"path":"translation"
					}
				},
				{
					"sampler":1,
					"target":{
						"node":0,
						"path":"rotation"
					}
				},
				{
					"sampler":2,
					"target":{
						"node":0,
						"path":"scale"
					}
				}
			],
			"name":"Star1Action",
			"samplers":[
				{
					"input":23,
					"interpolation":"LINEAR",
					"output":24
				},
				{
					"input":23,
					"interpolation":"LINEAR",
					"output":25
				},
				{
					"input":26,
					"interpolation":"STEP",
					"output":27
				}
			]
		},
		{
			"channels":[
				{
					"sampler":0,
					"target":{
						"node":1,
						"path":"translation"
					}
				},
				{
					"sampler":1,
					"target":{
						"node":1,
						"path":"rotation"
					}
				},
				{
					"sampler":2,
					"target":{
						"node":1,
						"path":"scale"
					}
				}
			],
			"name":"Star2Action",
			"samplers":[
				{
					"input":23,
					"interpolation":"LINEAR",
					"output":28
				},
				{
					"input":23,
					"interpolation":"LINEAR",
					"output":29
				},
				{
					"input":26,
					"interpolation":"STEP",
					"output":30
				}
			]
		},
		{
			"channels":[
				{
					"sampler":0,
					"target":{
						"node":2,
						"path":"translation"
					}
				},
				{
					"sampler":1,
					"target":{
						"node":2,
						"path":"rotation"
					}
				},
				{
					"sampler":2,
					"target":{
						"node":2,
						"path":"scale"
					}
				}
			],
			"name":"Star3Action",
			"samplers":[
				{
					"input":23,
					"interpolation":"LINEAR",
					"output":31
				},
				{
					"input":26,
					"interpolation":"STEP",
					"output":32
				},
				{
					"input":26,
					"interpolation":"STEP",
					"output":33
				}
			]
		},
		{
			"channels":[
				{
					"sampler":0,
					"target":{
						"node":3,
						"path":"translation"
					}
				},
				{
					"sampler":1,
					"target":{
						"node":3,
						"path":"rotation"
					}
				},
				{
					"sampler":2,
					"target":{
						"node":3,
						"path":"scale"
					}
				}
			],
			"name":"Star4Action",
			"samplers":[
				{
					"input":23,
					"interpolation":"LINEAR",
					"output":34
				},
				{
					"input":23,
					"interpolation":"LINEAR",
					"output":35
				},
				{
					"input":26,
					"interpolation":"STEP",
					"output":36
				}
			]
		},
		{
			"channels":[
				{
					"sampler":0,
					"target":{
						"node":4,
						"path":"translation"
					}
				},
				{
					"sampler":1,
					"target":{
						"node":4,
						"path":"rotation"
					}
				},
				{
					"sampler":2,
					"target":{
						"node":4,
						"path":"scale"
					}
				}
			],
			"name":"MiddleVenusAction",
			"samplers":[
				{
					"input":37,
					"interpolation":"STEP",
					"output":38
				},
				{
					"input":39,
					"interpolation":"LINEAR",
					"output":40
				},
				{
					"input":37,
					"interpolation":"STEP",
					"output":41
				}
			]
		},
		{
			"channels":[
				{
					"sampler":0,
					"target":{
						"node":5,
						"path":"translation"
					}
				},
				{
					"sampler":1,
					"target":{
						"node":5,
						"path":"rotation"
					}
				},
				{
					"sampler":2,
					"target":{
						"node":5,
						"path":"scale"
					}
				}
			],
			"name":"RightVenusAction",
			"samplers":[
				{
					"input":37,
					"interpolation":"STEP",
					"output":42
				},
				{
					"input":39,
					"interpolation":"LINEAR",
					"output":43
				},
				{
					"input":37,
					"interpolation":"STEP",
					"output":44
				}
			]
		},
		{
			"channels":[
				{
					"sampler":0,
					"target":{
						"node":6,
						"path":"translation"
					}
				},
				{
					"sampler":1,
					"target":{
						"node":6,
						"path":"rotation"
					}
				},
				{
					"sampler":2,
					"target":{
						"node":6,
						"path":"scale"
					}
				}
			],
			"name":"LeftVenusAction",
			"samplers":[
				{
					"input":37,
					"interpolation":"STEP",
					"output":45
				},
				{
					"input":39,
					"interpolation":"LINEAR",
					"output":46
				},
				{
					"input":37,
					"interpolation":"STEP",
					"output":47
				}
			]
		}
	],
	"materials":[
		{
			"doubleSided":true,
			"name":"Star",
			"pbrMetallicRoughness":{
				"baseColorFactor":[
					0.6691356301307678,
					0.09579835832118988,
					0.8003470301628113,
					1
				],
				"metallicFactor":0,
				"roughnessFactor":0.5
			}
		},
		{
			"doubleSided":true,
			"name":"Material",
			"pbrMetallicRoughness":{}
		},
		{
			"doubleSided":true,
			"name":"Material.001",
			"pbrMetallicRoughness":{
				"baseColorFactor":[
					0.5668163895606995,
					0.151856929063797,
					0.8002276420593262,
					1
				],
				"metallicFactor":0.8500000238418579,
				"roughnessFactor":0.3763636350631714
			}
		}
	],
	"meshes":[
		{
			"name":"Circle.001",
			"primitives":[
				{
					"attributes":{
						"POSITION":0,
						"NORMAL":1,
						"TEXCOORD_0":2
					},
					"indices":3,
					"material":0
				}
			]
		},
		{
			"name":"Circle.002",
			"primitives":[
				{
					"attributes":{
						"POSITION":4,
						"NORMAL":5,
						"TEXCOORD_0":6
					},
					"indices":3,
					"material":0
				}
			]
		},
		{
			"name":"Circle.003",
			"primitives":[
				{
					"attributes":{
						"POSITION":7,
						"NORMAL":8,
						"TEXCOORD_0":9
					},
					"indices":3,
					"material":0
				}
			]
		},
		{
			"name":"Circle.004",
			"primitives":[
				{
					"attributes":{
						"POSITION":10,
						"NORMAL":11,
						"TEXCOORD_0":12
					},
					"indices":3,
					"material":0
				}
			]
		},
		{
			"name":"Cylinder",
			"primitives":[
				{
					"attributes":{
						"POSITION":13,
						"NORMAL":14,
						"TEXCOORD_0":15
					},
					"indices":16,
					"material":1
				}
			]
		},
		{
			"name":"Cylinder.001",
			"primitives":[
				{
					"attributes":{
						"POSITION":17,
						"NORMAL":18,
						"TEXCOORD_0":19
					},
					"indices":16,
					"material":2
				}
			]
		},
		{
			"name":"Cylinder.002",
			"primitives":[
				{
					"attributes":{
						"POSITION":20,
						"NORMAL":21,
						"TEXCOORD_0":22
					},
					"indices":16,
					"material":2
				}
			]
		}
	],
	"accessors":[
		{
			"bufferView":0,
			"componentType":5126,
			"count":60,
			"max":[
				0.9524507522583008,
				0.15080927312374115,
				0.80901700258255
			],
			"min":[
				-0.9510565400123596,
				0,
				-1.0012837648391724
			],
			"type":"VEC3"
		},
		{
			"bufferView":1,
			"componentType":5126,
			"count":60,
			"type":"VEC3"
		},
		{
			"bufferView":2,
			"componentType":5126,
			"count":60,
			"type":"VEC2"
		},
		{
			"bufferView":3,
			"componentType":5123,
			"count":108,
			"type":"SCALAR"
		},
		{
			"bufferView":4,
			"componentType":5126,
			"count":60,
			"max":[
				0.9524507522583008,
				0.15080927312374115,
				0.80901700258255
			],
			"min":[
				-0.9510565400123596,
				0,
				-1.0012837648391724
			],
			"type":"VEC3"
		},
		{
			"bufferView":5,
			"componentType":5126,
			"count":60,
			"type":"VEC3"
		},
		{
			"bufferView":6,
			"componentType":5126,
			"count":60,
			"type":"VEC2"
		},
		{
			"bufferView":7,
			"componentType":5126,
			"count":60,
			"max":[
				0.9524507522583008,
				0.15080927312374115,
				0.80901700258255
			],
			"min":[
				-0.9510565400123596,
				0,
				-1.0012837648391724
			],
			"type":"VEC3"
		},
		{
			"bufferView":8,
			"componentType":5126,
			"count":60,
			"type":"VEC3"
		},
		{
			"bufferView":9,
			"componentType":5126,
			"count":60,
			"type":"VEC2"
		},
		{
			"bufferView":10,
			"componentType":5126,
			"count":60,
			"max":[
				0.9524507522583008,
				0.15080927312374115,
				0.80901700258255
			],
			"min":[
				-0.9510565400123596,
				0,
				-1.0012837648391724
			],
			"type":"VEC3"
		},
		{
			"bufferView":11,
			"componentType":5126,
			"count":60,
			"type":"VEC3"
		},
		{
			"bufferView":12,
			"componentType":5126,
			"count":60,
			"type":"VEC2"
		},
		{
			"bufferView":13,
			"componentType":5126,
			"count":340,
			"max":[
				1,
				0.26058828830718994,
				3.813965320587158
			],
			"min":[
				-1,
				-0.2605900764465332,
				-1
			],
			"type":"VEC3"
		},
		{
			"bufferView":14,
			"componentType":5126,
			"count":340,
			"type":"VEC3"
		},
		{
			"bufferView":15,
			"componentType":5126,
			"count":340,
			"type":"VEC2"
		},
		{
			"bufferView":16,
			"componentType":5123,
			"count":732,
			"type":"SCALAR"
		},
		{
			"bufferView":17,
			"componentType":5126,
			"count":340,
			"max":[
				1,
				0.26058828830718994,
				3.813965320587158
			],
			"min":[
				-1,
				-0.2605900764465332,
				-1
			],
			"type":"VEC3"
		},
		{
			"bufferView":18,
			"componentType":5126,
			"count":340,
			"type":"VEC3"
		},
		{
			"bufferView":19,
			"componentType":5126,
			"count":340,
			"type":"VEC2"
		},
		{
			"bufferView":20,
			"componentType":5126,
			"count":340,
			"max":[
				1,
				0.26058828830718994,
				3.813965320587158
			],
			"min":[
				-1,
				-0.2605900764465332,
				-1
			],
			"type":"VEC3"
		},
		{
			"bufferView":21,
			"componentType":5126,
			"count":340,
			"type":"VEC3"
		},
		{
			"bufferView":22,
			"componentType":5126,
			"count":340,
			"type":"VEC2"
		},
		{
			"bufferView":23,
			"componentType":5126,
			"count":72,
			"max":[
				3
			],
			"min":[
				0.041666666666666664
			],
			"type":"SCALAR"
		},
		{
			"bufferView":24,
			"componentType":5126,
			"count":72,
			"type":"VEC3"
		},
		{
			"bufferView":25,
			"componentType":5126,
			"count":72,
			"type":"VEC4"
		},
		{
			"bufferView":26,
			"componentType":5126,
			"count":2,
			"max":[
				3
			],
			"min":[
				0.041666666666666664
			],
			"type":"SCALAR"
		},
		{
			"bufferView":27,
			"componentType":5126,
			"count":2,
			"type":"VEC3"
		},
		{
			"bufferView":28,
			"componentType":5126,
			"count":72,
			"type":"VEC3"
		},
		{
			"bufferView":29,
			"componentType":5126,
			"count":72,
			"type":"VEC4"
		},
		{
			"bufferView":30,
			"componentType":5126,
			"count":2,
			"type":"VEC3"
		},
		{
			"bufferView":31,
			"componentType":5126,
			"count":72,
			"type":"VEC3"
		},
		{
			"bufferView":32,
			"componentType":5126,
			"count":2,
			"type":"VEC4"
		},
		{
			"bufferView":33,
			"componentType":5126,
			"count":2,
			"type":"VEC3"
		},
		{
			"bufferView":34,
			"componentType":5126,
			"count":72,
			"type":"VEC3"
		},
		{
			"bufferView":35,
			"componentType":5126,
			"count":72,
			"type":"VEC4"
		},
		{
			"bufferView":36,
			"componentType":5126,
			"count":2,
			"type":"VEC3"
		},
		{
			"bufferView":37,
			"componentType":5126,
			"count":2,
			"max":[
				4
			],
			"min":[
				0.041666666666666664
			],
			"type":"SCALAR"
		},
		{
			"bufferView":38,
			"componentType":5126,
			"count":2,
			"type":"VEC3"
		},
		{
			"bufferView":39,
			"componentType":5126,
			"count":96,
			"max":[
				4
			],
			"min":[
				0.041666666666666664
			],
			"type":"SCALAR"
		},
		{
			"bufferView":40,
			"componentType":5126,
			"count":96,
			"type":"VEC4"
		},
		{
			"bufferView":41,
			"componentType":5126,
			"count":2,
			"type":"VEC3"
		},
		{
			"bufferView":42,
			"componentType":5126,
			"count":2,
			"type":"VEC3"
		},
		{
			"bufferView":43,
			"componentType":5126,
			"count":96,
			"type":"VEC4"
		},
		{
			"bufferView":44,
			"componentType":5126,
			"count":2,
			"type":"VEC3"
		},
		{
			"bufferView":45,
			"componentType":5126,
			"count":2,
			"type":"VEC3"
		},
		{
			"bufferView":46,
			"componentType":5126,
			"count":96,
			"type":"VEC4"
		},
		{
			"bufferView":47,
			"componentType":5126,
			"count":2,
			"type":"VEC3"
		}
	],
	"bufferViews":[
		{
			"buffer":0,
			"byteLength":720,
			"byteOffset":0,
			"target":34962
		},
		{
			"buffer":0,
			"byteLength":720,
			"byteOffset":720,
			"target":34962
		},
		{
			"buffer":0,
			"byteLength":480,
			"byteOffset":1440,
			"target":34962
		},
		{
			"buffer":0,
			"byteLength":216,
			"byteOffset":1920,
			"target":34963
		},
		{
			"buffer":0,
			"byteLength":720,
			"byteOffset":2136,
			"target":34962
		},
		{
			"buffer":0,
			"byteLength":720,
			"byteOffset":2856,
			"target":34962
		},
		{
			"buffer":0,
			"byteLength":480,
			"byteOffset":3576,
			"target":34962
		},
		{
			"buffer":0,
			"byteLength":720,
			"byteOffset":4056,
			"target":34962
		},
		{
			"buffer":0,
			"byteLength":720,
			"byteOffset":4776,
			"target":34962
		},
		{
			"buffer":0,
			"byteLength":480,
			"byteOffset":5496,
			"target":34962
		},
		{
			"buffer":0,
			"byteLength":720,
			"byteOffset":5976,
			"target":34962
		},
		{
			"buffer":0,
			"byteLength":720,
			"byteOffset":6696,
			"target":34962
		},
		{
			"buffer":0,
			"byteLength":480,
			"byteOffset":7416,
			"target":34962
		},
		{
			"buffer":0,
			"byteLength":4080,
			"byteOffset":7896,
			"target":34962
		},
		{
			"buffer":0,
			"byteLength":4080,
			"byteOffset":11976,
			"target":34962
		},
		{
			"buffer":0,
			"byteLength":2720,
			"byteOffset":16056,
			"target":34962
		},
		{
			"buffer":0,
			"byteLength":1464,
			"byteOffset":18776,
			"target":34963
		},
		{
			"buffer":0,
			"byteLength":4080,
			"byteOffset":20240,
			"target":34962
		},
		{
			"buffer":0,
			"byteLength":4080,
			"byteOffset":24320,
			"target":34962
		},
		{
			"buffer":0,
			"byteLength":2720,
			"byteOffset":28400,
			"target":34962
		},
		{
			"buffer":0,
			"byteLength":4080,
			"byteOffset":31120,
			"target":34962
		},
		{
			"buffer":0,
			"byteLength":4080,
			"byteOffset":35200,
			"target":34962
		},
		{
			"buffer":0,
			"byteLength":2720,
			"byteOffset":39280,
			"target":34962
		},
		{
			"buffer":0,
			"byteLength":288,
			"byteOffset":42000
		},
		{
			"buffer":0,
			"byteLength":864,
			"byteOffset":42288
		},
		{
			"buffer":0,
			"byteLength":1152,
			"byteOffset":43152
		},
		{
			"buffer":0,
			"byteLength":8,
			"byteOffset":44304
		},
		{
			"buffer":0,
			"byteLength":24,
			"byteOffset":44312
		},
		{
			"buffer":0,
			"byteLength":864,
			"byteOffset":44336
		},
		{
			"buffer":0,
			"byteLength":1152,
			"byteOffset":45200
		},
		{
			"buffer":0,
			"byteLength":24,
			"byteOffset":46352
		},
		{
			"buffer":0,
			"byteLength":864,
			"byteOffset":46376
		},
		{
			"buffer":0,
			"byteLength":32,
			"byteOffset":47240
		},
		{
			"buffer":0,
			"byteLength":24,
			"byteOffset":47272
		},
		{
			"buffer":0,
			"byteLength":864,
			"byteOffset":47296
		},
		{
			"buffer":0,
			"byteLength":1152,
			"byteOffset":48160
		},
		{
			"buffer":0,
			"byteLength":24,
			"byteOffset":49312
		},
		{
			"buffer":0,
			"byteLength":8,
			"byteOffset":49336
		},
		{
			"buffer":0,
			"byteLength":24,
			"byteOffset":49344
		},
		{
			"buffer":0,
			"byteLength":384,
			"byteOffset":49368
		},
		{
			"buffer":0,
			"byteLength":1536,
			"byteOffset":49752
		},
		{
			"buffer":0,
			"byteLength":24,
			"byteOffset":51288
		},
		{
			"buffer":0,
			"byteLength":24,
			"byteOffset":51312
		},
		{
			"buffer":0,
			"byteLength":1536,
			"byteOffset":51336
		},
		{
			"buffer":0,
			"byteLength":24,
			"byteOffset":52872
		},
		{
			"buffer":0,
			"byteLength":24,
			"byteOffset":52896
		},
		{
			"buffer":0,
			"byteLength":1536,
			"byteOffset":52920
		},
		{
			"buffer":0,
			"byteLength":24,
			"byteOffset":54456
		}
	],
	"buffers":[
		{
			"byteLength":54480,
			"uri":"BlenderFile2.bin"
		}
	]
}
