{
  "asset": {
    "version": "2.0",
    "generator": "THREE.GLTFExporter"
  },
  "scenes": [
    {
      "name": "Scene",
      "nodes": [
        1
      ]
    }
  ],
  "scene": 0,
  "nodes": [
    {
      "rotation": [
        0,
        8.742277657347586e-8,
        0,
        1
      ],
      "translation": [
        0.0002585332840681076,
        -0.007994458079338074,
        -0.5006848573684692
      ],
      "scale": [
        4.457034361105004,
        3.973466905930983,
        2.36446966479412
      ],
      "name": "Heart",
      "extras": {
        "name": "Heart"
      },
      "mesh": 0
    },
    {
      "name": "Heart.glb",
      "children": [
        0
      ]
    }
  ],
  "bufferViews": [
    {
      "buffer": 0,
      "byteOffset": 0,
      "byteLength": 332940,
      "target": 34962,
      "byteStride": 12
    },
    {
      "buffer": 0,
      "byteOffset": 332940,
      "byteLength": 332940,
      "target": 34962,
      "byteStride": 12
    },
    {
      "buffer": 0,
      "byteOffset": 665880,
      "byteLength": 221960,
      "target": 34962,
      "byteStride": 8
    },
    {
      "buffer": 0,
      "byteOffset": 887840,
      "byteLength": 325632,
      "target": 34963
    },
    {
      "buffer": 0,
      "byteOffset": 1213472,
      "byteLength": 8
    },
    {
      "buffer": 0,
      "byteOffset": 1213480,
      "byteLength": 24
    },
    {
      "buffer": 0,
      "byteOffset": 1213504,
      "byteLength": 332
    },
    {
      "buffer": 0,
      "byteOffset": 1213836,
      "byteLength": 1328
    },
    {
      "buffer": 0,
      "byteOffset": 1215164,
      "byteLength": 912
    },
    {
      "buffer": 0,
      "byteOffset": 1216076,
      "byteLength": 2736
    }
  ],
  "buffers": [
    {
      "byteLength": 1218812,
      "uri": "data:application/octet-stream;base64,"
    }
  ],
  "accessors": [
    {
      "bufferView": 0,
      "componentType": 5126,
      "count": 27745,
      "max": [
        0.670723557472229,
        0.33807945251464844,
        0.724274218082428
      ],
      "min": [
        -0.6707236170768738,
        -0.8958534598350525,
        -0.724274218082428
      ],
      "type": "VEC3"
    },
    {
      "bufferView": 1,
      "componentType": 5126,
      "count": 27745,
      "max": [
        0.9998288750648499,
        1,
        0.9996948838233948
      ],
      "min": [
        -0.9998288750648499,
        -1,
        -0.9996948838233948
      ],
      "type": "VEC3"
    },
    {
      "bufferView": 2,
      "componentType": 5126,
      "count": 27745,
      "max": [
        0.8750002384185791,
        1
      ],
      "min": [
        0.125,
        -2.384185791015625e-7
      ],
      "type": "VEC2"
    },
    {
      "bufferView": 3,
      "componentType": 5123,
      "count": 162816,
      "max": [
        27744
      ],
      "min": [
        0
      ],
      "type": "SCALAR"
    },
    {
      "bufferView": 4,
      "componentType": 5126,
      "count": 2,
      "max": [
        10
      ],
      "min": [
        0.0416666679084301
      ],
      "type": "SCALAR"
    },
    {
      "bufferView": 5,
      "componentType": 5126,
      "count": 2,
      "max": [
        0.0002585332840681076,
        -0.007994458079338074,
        -0.5006848573684692
      ],
      "min": [
        0.0002585332840681076,
        -0.007994458079338074,
        -0.5006848573684692
      ],
      "type": "VEC3"
    },
    {
      "bufferView": 6,
      "componentType": 5126,
      "count": 83,
      "max": [
        10
      ],
      "min": [
        0.0416666679084301
      ],
      "type": "SCALAR"
    },
    {
      "bufferView": 7,
      "componentType": 5126,
      "count": 83,
      "max": [
        0,
        0.9992028474807739,
        0,
        1
      ],
      "min": [
        0,
        -0.9992028474807739,
        0,
        0.03992108255624771
      ],
      "type": "VEC4"
    },
    {
      "bufferView": 8,
      "componentType": 5126,
      "count": 228,
      "max": [
        10
      ],
      "min": [
        0.0416666679084301
      ],
      "type": "SCALAR"
    },
    {
      "bufferView": 9,
      "componentType": 5126,
      "count": 228,
      "max": [
        4.785423278808594,
        4.266226768493652,
        2.5386805534362793
      ],
      "min": [
        0.29666659235954285,
        0.2644796371459961,
        0.15738247334957123
      ],
      "type": "VEC3"
    }
  ],
  "materials": [
    {
      "pbrMetallicRoughness": {
        "metallicFactor": 1,
        "roughnessFactor": 1
      },
      "doubleSided": true,
      "name": "Heart_Texture"
    }
  ],
  "meshes": [
    {
      "primitives": [
        {
          "mode": 4,
          "attributes": {
            "POSITION": 0,
            "NORMAL": 1,
            "TEXCOORD_0": 2
          },
          "indices": 3,
          "material": 0
        }
      ]
    }
  ],
  "animations": [
    {
      "name": "HeartAction.002",
      "samplers": [
        {
          "input": 4,
          "output": 5,
          "interpolation": "STEP"
        },
        {
          "input": 6,
          "output": 7,
          "interpolation": "LINEAR"
        },
        {
          "input": 8,
          "output": 9,
          "interpolation": "LINEAR"
        }
      ],
      "channels": [
        {
          "sampler": 0,
          "target": {
            "node": 0,
            "path": "translation"
          }
        },
        {
          "sampler": 1,
          "target": {
            "node": 0,
            "path": "rotation"
          }
        },
        {
          "sampler": 2,
          "target": {
            "node": 0,
            "path": "scale"
          }
        }
      ]
    }
  ]
}